<svg width="148" height="57" viewBox="0 0 148 57" fill="none" xmlns="http://www.w3.org/2000/svg">
<path d="M38.1233 8.45415C35.1775 4.4981 30.9199 1.70418 26.1026 0.565878C21.2854 -0.572423 16.2184 0.0181451 11.7967 2.23327C8.0981 3.98416 5.03887 6.83512 3.04285 10.3912C2.61155 11.0937 2.23154 11.8261 1.90576 12.5827C-1.51419 19.5542 -0.290296 28.851 5.24759 34.7958C10.1865 40.1021 15.4814 45.0806 20.5983 50.2272C21.1321 50.7622 21.4359 50.6586 21.9003 50.1884C23.1372 48.8942 24.3698 47.6 25.7022 46.4007C26.4964 45.6888 26.44 45.292 25.7022 44.5672C20.9802 39.9425 16.2886 35.2862 11.6274 30.5982C9.58698 28.5674 8.25183 25.9423 7.81632 23.1049C7.38081 20.2675 7.86766 17.366 9.20602 14.8228C10.5444 12.2795 12.6644 10.2272 15.2575 8.96458C17.8506 7.70196 20.7814 7.29492 23.6233 7.80272C27.5293 8.47572 30.4198 10.6888 32.7374 13.7691C32.8372 13.9934 32.9283 14.2264 33.0412 14.4421C36.7996 21.5387 34.2477 29.4421 27.512 32.9925C24.5217 29.9986 21.5054 27.0348 18.5671 23.9891C17.378 22.7596 17.2651 21.2324 18.1331 19.7441C18.5989 18.9317 19.3605 18.328 20.2609 18.0575C21.1613 17.787 22.1319 17.8703 22.9723 18.2902C23.3991 18.4762 23.7839 18.7457 24.1038 19.0827C24.4236 19.4196 24.6719 19.8171 24.8339 20.2515C24.9959 20.6859 25.0683 21.1482 25.0467 21.611C25.0251 22.0738 24.91 22.5275 24.7083 22.9451C24.079 24.1573 24.4349 24.8174 25.2855 25.5335C26.0537 26.2022 26.7481 26.9658 27.5727 27.5525C27.8548 27.751 28.1977 27.2246 28.4147 26.9183C29.6646 25.1496 30.4285 23.2083 30.2766 21.0253C30.0292 17.229 27.0432 13.7475 23.441 12.9494C19.6999 12.1082 15.655 13.7734 13.7627 16.9313C12.7536 18.5811 12.3128 20.5129 12.507 22.434C12.7012 24.3552 13.5199 26.1611 14.8391 27.5784C15.7071 28.5189 16.5751 29.4421 17.4431 30.3739C19.305 32.2117 23.3542 36.2108 23.5191 36.3748C24.8211 37.669 29.5691 41.8407 29.5691 41.8407C30.3639 41.4215 31.1154 40.9259 31.8129 40.361C33.5758 38.7607 35.2506 37.0672 36.83 35.2876C39.7031 32.1427 41.604 28.4973 42.0728 24.2134C43.1274 18.3765 41.591 13.109 38.1233 8.45415Z" fill="#009398"/>
<path d="M33.9309 49.9427C33.4406 49.5752 32.9193 49.2504 32.3728 48.972C30.7198 48.2443 28.9774 47.7366 27.1908 47.4621C27.1026 47.4304 27.0062 47.4298 26.9177 47.4604C26.8292 47.4911 26.7539 47.5511 26.7047 47.6304C26.453 48.0186 26.1622 48.381 25.8367 48.8124C27.5467 49.1964 29.2176 49.5156 30.6454 50.4906C31.1793 50.922 31.6003 51.4397 31.5699 52.1429C31.5699 52.2378 31.5395 52.3327 31.5352 52.4276C31.3454 52.8537 31.0308 53.213 30.6324 53.4587C29.9908 53.8699 29.3034 54.2058 28.5839 54.4595C28.2074 54.5982 27.8198 54.705 27.4251 54.7788C24.9801 55.3271 22.4737 55.5577 19.969 55.4647C18.3298 55.3968 16.6979 55.2094 15.0864 54.9039L14.9606 54.8046C14.2966 54.7041 13.6469 54.526 13.0249 54.274L13.0032 54.2438C12.9294 54.1489 12.7819 54.2093 12.7081 54.1144C12.1012 53.9154 11.5477 53.582 11.0893 53.1394C10.2603 52.3845 10.2733 51.526 11.111 50.771C11.8461 50.1811 12.6912 49.7413 13.5978 49.4768C14.4311 49.1748 15.3338 49.0454 16.2018 48.8038C15.9825 48.5127 15.7811 48.2087 15.5986 47.8935C15.3729 47.4621 15.0691 47.4147 14.622 47.5053C13.4532 47.72 12.3016 48.0184 11.1761 48.3983C9.87405 48.8599 8.60242 49.3991 7.63893 50.4345C6.67545 51.4699 6.73187 52.5613 7.67365 53.5363C7.90744 53.7804 8.16311 54.0027 8.4375 54.2007C9.60771 55.0843 10.9542 55.7093 12.3869 56.0342C17.9458 57.3219 23.7281 57.3219 29.287 56.0342C30.9992 55.7039 32.6145 54.9946 34.0133 53.9591C35.5931 52.6908 35.5497 51.1679 33.9309 49.9427Z" fill="#F99110"/>
<path d="M54.125 30.6299H57.2821V22.4992H58.7745C61.9316 22.4992 63.4814 20.7589 63.4814 17.5637V15.5952C63.4814 12.3999 61.9316 10.6597 58.7745 10.6597H54.125V30.6299ZM57.2821 19.6463V13.5126H58.7745C59.779 13.5126 60.3243 13.969 60.3243 15.3955V17.7634C60.3243 19.1898 59.779 19.6463 58.7745 19.6463H57.2821Z" fill="#009398"/>
<path d="M67.3486 30.6299H70.5057V10.6597H67.3486V30.6299Z" fill="#009398"/>
<path d="M75.0227 30.6299H77.8353V16.0516H77.8927L81.6812 30.6299H84.9244V10.6597H82.1117V22.6133H82.0543L78.9833 10.6597H75.0227V30.6299Z" fill="#009398"/>
<path d="M89.4234 30.6299H92.5805V22.4992H94.0729C97.23 22.4992 98.7798 20.7589 98.7798 17.5637V15.5952C98.7798 12.3999 97.23 10.6597 94.0729 10.6597H89.4234V30.6299ZM92.5805 19.6463V13.5126H94.0729C95.0774 13.5126 95.6228 13.969 95.6228 15.3955V17.7634C95.6228 19.1898 95.0774 19.6463 94.0729 19.6463H92.5805Z" fill="#009398"/>
<path d="M107.21 30.9152C110.31 30.9152 112.003 29.0894 112.003 25.8941V15.3955C112.003 12.2002 110.31 10.3744 107.21 10.3744C104.111 10.3744 102.417 12.2002 102.417 15.3955V25.8941C102.417 29.0894 104.111 30.9152 107.21 30.9152ZM107.21 28.0623C106.206 28.0623 105.574 27.5203 105.574 26.0938V15.1958C105.574 13.7693 106.206 13.2273 107.21 13.2273C108.215 13.2273 108.846 13.7693 108.846 15.1958V26.0938C108.846 27.5203 108.215 28.0623 107.21 28.0623Z" fill="#009398"/>
<path d="M116.291 30.6299H119.448V10.6597H116.291V30.6299Z" fill="#009398"/>
<path d="M123.965 30.6299H126.778V16.0516H126.835L130.624 30.6299H133.867V10.6597H131.054V22.6133H130.997L127.926 10.6597H123.965V30.6299Z" fill="#009398"/>
<path d="M140.834 30.6299H143.991V13.5126H147.292V10.6597H137.534V13.5126H140.834V30.6299Z" fill="#009398"/>
<path d="M69.8788 45.0829L69.5467 46.1476H71.6568L71.3248 45.0829C71.1962 44.6925 71.0748 44.3057 70.9606 43.9224C70.8463 43.532 70.7321 43.1345 70.6178 42.7299H70.575C70.4679 43.1345 70.3572 43.532 70.2429 43.9224C70.1287 44.3057 70.0073 44.6925 69.8788 45.0829ZM67.7365 48.9904L70.1144 42.0059H71.1213L73.4991 48.9904H72.5459L71.8818 46.861H69.3218L68.647 48.9904H67.7365Z" fill="#F99110"/>
<path d="M76.6369 48.9904V42.0059H77.5581L80.0967 46.3925L80.8572 47.8405H80.9C80.8786 47.4856 80.8536 47.12 80.825 46.7439C80.8036 46.3606 80.7929 45.9844 80.7929 45.6153V42.0059H81.6391V48.9904H80.7179L78.1686 44.5931L77.4081 43.1558H77.3653C77.3939 43.5036 77.4189 43.862 77.4403 44.2311C77.4688 44.6002 77.4831 44.9693 77.4831 45.3384V48.9904H76.6369Z" fill="#F99110"/>
<path d="M86.9246 45.0829L86.5926 46.1476H88.7027L88.3706 45.0829C88.2421 44.6925 88.1207 44.3057 88.0065 43.9224C87.8922 43.532 87.778 43.1345 87.6637 42.7299H87.6209C87.5138 43.1345 87.4031 43.532 87.2888 43.9224C87.1746 44.3057 87.0532 44.6925 86.9246 45.0829ZM84.7824 48.9904L87.1603 42.0059H88.1671L90.545 48.9904H89.5917L88.9276 46.861H86.3676L85.6928 48.9904H84.7824Z" fill="#F99110"/>
<path d="M93.6828 48.9904V42.0059H94.5718V48.2344H97.646V48.9904H93.6828Z" fill="#F99110"/>
<path d="M101.354 48.9904V46.286L99.2436 42.0059H100.197L101.107 43.9756C101.222 44.2311 101.332 44.4831 101.439 44.7315C101.554 44.98 101.668 45.2355 101.782 45.4981H101.825C101.946 45.2355 102.068 44.98 102.189 44.7315C102.311 44.4831 102.425 44.2311 102.532 43.9756L103.432 42.0059H104.364L102.253 46.286V48.9904H101.354Z" fill="#F99110"/>
<path d="M108.765 48.9904V42.7512H106.644V42.0059H111.786V42.7512H109.665V48.9904H108.765Z" fill="#F99110"/>
<path d="M115.193 48.9904V42.0059H116.082V48.9904H115.193Z" fill="#F99110"/>
<path d="M122.805 49.1182C122.22 49.1182 121.695 48.9762 121.231 48.6923C120.774 48.4013 120.41 47.986 120.138 47.4466C119.874 46.9071 119.742 46.2576 119.742 45.4981C119.742 44.7457 119.878 44.0998 120.149 43.5604C120.42 43.0209 120.792 42.6057 121.263 42.3147C121.734 42.0236 122.266 41.8781 122.859 41.8781C123.287 41.8781 123.666 41.9668 123.994 42.1443C124.323 42.3147 124.587 42.5134 124.787 42.7405L124.305 43.3155C124.119 43.1167 123.909 42.957 123.673 42.8364C123.437 42.7157 123.17 42.6554 122.87 42.6554C122.427 42.6554 122.038 42.7725 121.702 43.0067C121.374 43.2339 121.117 43.5568 120.931 43.9756C120.753 44.3944 120.663 44.8948 120.663 45.4768C120.663 46.0589 120.753 46.5664 120.931 46.9994C121.11 47.4253 121.359 47.7553 121.681 47.9896C122.009 48.2238 122.395 48.3409 122.838 48.3409C123.173 48.3409 123.473 48.2699 123.737 48.128C124.002 47.986 124.244 47.7944 124.466 47.553L124.958 48.1067C124.68 48.4261 124.366 48.6745 124.016 48.852C123.666 49.0294 123.262 49.1182 122.805 49.1182Z" fill="#F99110"/>
<path d="M130.098 49.1182C129.606 49.1182 129.149 49.0259 128.727 48.8413C128.306 48.6497 127.942 48.3977 127.635 48.0854L128.17 47.4679C128.42 47.7305 128.713 47.9434 129.049 48.1067C129.392 48.2628 129.745 48.3409 130.109 48.3409C130.573 48.3409 130.934 48.238 131.191 48.0322C131.448 47.8192 131.577 47.5424 131.577 47.2017C131.577 46.9603 131.523 46.7687 131.416 46.6267C131.316 46.4848 131.177 46.3641 130.998 46.2647C130.827 46.1654 130.63 46.066 130.409 45.9666L129.402 45.5301C129.181 45.4378 128.96 45.3171 128.738 45.1681C128.524 45.019 128.342 44.8274 128.192 44.5931C128.049 44.3589 127.978 44.0714 127.978 43.7307C127.978 43.3758 128.07 43.0599 128.256 42.7831C128.449 42.4992 128.713 42.2792 129.049 42.123C129.384 41.9597 129.763 41.8781 130.184 41.8781C130.605 41.8781 130.995 41.9597 131.352 42.123C131.709 42.2792 132.012 42.485 132.262 42.7405L131.78 43.3155C131.566 43.1096 131.327 42.9499 131.062 42.8364C130.805 42.7157 130.513 42.6554 130.184 42.6554C129.791 42.6554 129.474 42.7476 129.231 42.9322C128.995 43.1167 128.877 43.3652 128.877 43.6775C128.877 43.8975 128.935 44.0821 129.049 44.2311C129.17 44.3731 129.32 44.4902 129.499 44.5825C129.677 44.6748 129.859 44.7599 130.045 44.838L131.041 45.2639C131.312 45.3775 131.555 45.5159 131.769 45.6791C131.991 45.8353 132.166 46.0305 132.294 46.2647C132.423 46.4919 132.487 46.7793 132.487 47.1271C132.487 47.4962 132.391 47.8334 132.198 48.1386C132.005 48.4367 131.73 48.6745 131.373 48.852C131.016 49.0294 130.591 49.1182 130.098 49.1182Z" fill="#F99110"/>
</svg>
