<svg width="191" height="64" viewBox="0 0 191 64" fill="none" xmlns="http://www.w3.org/2000/svg">
<g clip-path="url(#clip0_631_15260)">
<path d="M175.79 8.59297e-05H15.2186C14.6333 8.59297e-05 14.0551 8.59298e-05 13.4713 0.00328593C12.9826 0.00648593 12.4979 0.0157819 12.0045 0.0236059C10.9327 0.0362488 9.86349 0.130768 8.80604 0.306342C7.75007 0.485738 6.72719 0.823951 5.77198 1.30954C4.81793 1.79924 3.9462 2.43555 3.18839 3.1954C2.42661 3.9531 1.7916 4.82891 1.30779 5.78914C0.822648 6.74746 0.486247 7.77439 0.310209 8.83445C0.132497 9.89318 0.0368681 10.9641 0.0241814 12.0377C0.00936931 12.5282 0.0078051 13.0204 0 13.511V50.4938C0.0078051 50.9906 0.00936931 51.4719 0.0241814 51.9689C0.036872 53.0424 0.132501 54.1132 0.310209 55.1719C0.485761 56.2326 0.822182 57.2601 1.30779 58.2188C1.79138 59.1759 2.42648 60.0482 3.18839 60.8017C3.94332 61.5649 4.81562 62.2016 5.77198 62.6876C6.72718 63.1745 7.74995 63.5147 8.80604 63.6969C9.86367 63.871 10.9328 63.9656 12.0045 63.9798C12.4979 63.9906 12.9826 63.9969 13.4713 63.9969C14.055 64.0001 14.6334 64.0001 15.2186 64.0001H175.79C176.364 64.0001 176.947 64.0001 177.52 63.9969C178.007 63.9969 178.505 63.9906 178.992 63.9798C180.061 63.9664 181.128 63.8718 182.184 63.6969C183.243 63.5134 184.27 63.1733 185.23 62.6876C186.185 62.2014 187.057 61.5646 187.811 60.8017C188.571 60.0452 189.207 59.1736 189.697 58.2188C190.179 57.2594 190.512 56.232 190.685 55.1719C190.863 54.1131 190.962 53.0425 190.981 51.9689C190.988 51.4719 190.988 50.9906 190.988 50.4938C191 49.9126 191 49.3345 191 48.7438V15.2579C191 14.672 191 14.0907 190.988 13.511C190.988 13.0204 190.988 12.5282 190.981 12.0376C190.962 10.964 190.863 9.89326 190.685 8.83439C190.512 7.77494 190.178 6.74809 189.697 5.78908C188.712 3.8644 187.149 2.29773 185.23 1.3094C184.27 0.824994 183.243 0.486871 182.184 0.306198C181.129 0.12985 180.061 0.0352983 178.992 0.0233819C178.505 0.0155739 178.007 0.00619793 177.52 0.00307793C176.947 -0.00012207 176.364 -0.00012207 175.79 -0.00012207V8.59297e-05Z" fill="#A6A6A6"/>
<path d="M13.4792 62.6C12.9929 62.6 12.5183 62.5938 12.0358 62.5829C11.0363 62.5699 10.0391 62.4826 9.05243 62.3219C8.1324 62.1631 7.24115 61.8676 6.40805 61.4453C5.5826 61.0265 4.82972 60.4773 4.17825 59.8187C3.51736 59.168 2.96713 58.4132 2.54938 57.5843C2.12703 56.7501 1.83473 55.8559 1.68268 54.9328C1.51848 53.941 1.42963 52.9381 1.41692 51.9328C1.4068 51.5954 1.39355 50.4719 1.39355 50.4719V13.511C1.39355 13.511 1.40766 12.4047 1.417 12.0797C1.42917 11.076 1.5175 10.0747 1.68121 9.08439C1.83354 8.15882 2.12606 7.26202 2.54865 6.42503C2.96486 5.59673 3.51203 4.8414 4.16895 4.18831C4.82512 3.52902 5.58041 2.97699 6.40727 2.55236C7.23845 2.13137 8.12802 1.838 9.04619 1.68206C10.0361 1.51976 11.0368 1.43202 12.0398 1.41956L13.48 1.40002H177.512L178.97 1.42034C179.964 1.43218 180.955 1.51914 181.936 1.68049C182.864 1.83838 183.762 2.13381 184.603 2.55705C186.26 3.4128 187.607 4.76669 188.458 6.42894C188.874 7.26015 189.162 8.14963 189.312 9.06721C189.478 10.0656 189.57 11.0748 189.589 12.0867C189.594 12.5399 189.594 13.0266 189.594 13.511C189.607 14.111 189.607 14.6821 189.607 15.2578V48.7437C189.607 49.325 189.607 49.8922 189.594 50.464C189.594 50.9843 189.594 51.461 189.588 51.9515C189.569 52.9454 189.478 53.9366 189.315 54.9171C189.166 55.8468 188.875 56.748 188.453 57.5891C188.032 58.409 187.485 59.1572 186.832 59.8063C186.18 60.4683 185.426 61.0207 184.598 61.4423C183.76 61.8679 182.863 62.1644 181.936 62.3219C180.95 62.4835 179.952 62.5707 178.953 62.5829C178.485 62.5938 177.996 62.6 177.52 62.6L175.79 62.6032L13.4792 62.6Z" fill="black"/>
<path d="M39.5345 32.4807C39.5517 31.1452 39.9056 29.8358 40.5632 28.6743C41.2209 27.5127 42.1609 26.5368 43.2959 25.8374C42.5749 24.8051 41.6237 23.9556 40.5178 23.3563C39.412 22.757 38.182 22.4245 36.9255 22.3851C34.2452 22.1031 31.6468 23.9928 30.2809 23.9928C28.8887 23.9928 26.7858 22.4131 24.5213 22.4598C23.0565 22.5072 21.629 22.9342 20.3779 23.6991C19.1267 24.464 18.0945 25.5407 17.3819 26.8244C14.295 32.1818 16.5975 40.0555 19.5546 44.3861C21.034 46.5067 22.7631 48.8754 25.0255 48.7914C27.2394 48.6993 28.0663 47.3762 30.7387 47.3762C33.3863 47.3762 34.1621 48.7914 36.4704 48.738C38.8461 48.6993 40.3429 46.608 41.7704 44.4673C42.8334 42.9564 43.6514 41.2864 44.194 39.5193C42.8138 38.9342 41.636 37.9547 40.8074 36.703C39.9788 35.4513 39.5361 33.9829 39.5345 32.4807Z" fill="white"/>
<path d="M35.1746 19.538C36.4699 17.9793 37.1081 15.9758 36.9535 13.953C34.9746 14.1614 33.1466 15.1094 31.8338 16.6084C31.1919 17.3406 30.7003 18.1925 30.3871 19.1154C30.0739 20.0382 29.9451 21.0139 30.0083 21.9866C30.9981 21.9968 31.9774 21.7818 32.8723 21.3576C33.7671 20.9335 34.5544 20.3113 35.1746 19.538Z" fill="white"/>
<path d="M67.5202 43.4235H59.9651L58.1507 48.7938H54.9507L62.1068 28.925H65.4315L72.5877 48.7938H69.333L67.5202 43.4235ZM60.7476 40.9453H66.7363L63.784 32.2297H63.7014L60.7476 40.9453Z" fill="white"/>
<path d="M88.0426 41.5513C88.0426 46.0528 85.639 48.945 82.0119 48.945C81.093 48.9932 80.1793 48.781 79.3751 48.3328C78.571 47.8846 77.9091 47.2184 77.4651 46.4106H77.3964V53.5856H74.4302V34.3075H77.3014V36.7169H77.356C77.8204 35.9129 78.4935 35.2502 79.3037 34.7993C80.114 34.3483 81.031 34.126 81.9573 34.1559C85.6249 34.1559 88.0426 37.0622 88.0426 41.5513ZM84.9937 41.5513C84.9937 38.6185 83.4817 36.6903 81.1748 36.6903C78.9084 36.6903 77.384 38.6591 77.384 41.5513C77.384 44.47 78.9084 46.4247 81.1748 46.4247C83.4817 46.4247 84.9937 44.5106 84.9937 41.5513Z" fill="white"/>
<path d="M103.948 41.5512C103.948 46.0528 101.544 48.945 97.9171 48.945C96.9983 48.9932 96.0845 48.781 95.2804 48.3328C94.4763 47.8846 93.8143 47.2184 93.3703 46.4106H93.3017V53.5856H90.3354V34.3075H93.2066V36.7169H93.2612C93.7256 35.9129 94.3987 35.2502 95.209 34.7993C96.0192 34.3483 96.9363 34.126 97.8625 34.1559C101.53 34.1559 103.948 37.0622 103.948 41.5512ZM100.899 41.5512C100.899 38.6184 99.387 36.6903 97.0801 36.6903C94.8137 36.6903 93.2893 38.6591 93.2893 41.5512C93.2893 44.47 94.8137 46.4247 97.0801 46.4247C99.387 46.4247 100.899 44.5106 100.899 41.5512H100.899Z" fill="white"/>
<path d="M114.46 43.2579C114.68 45.2282 116.589 46.5219 119.198 46.5219C121.699 46.5219 123.497 45.2282 123.497 43.4516C123.497 41.9094 122.412 40.986 119.844 40.3531L117.275 39.7328C113.635 38.8516 111.946 37.1453 111.946 34.3766C111.946 30.9484 114.926 28.5938 119.158 28.5938C123.346 28.5938 126.217 30.9484 126.314 34.3766H123.32C123.14 32.3937 121.505 31.1969 119.116 31.1969C116.726 31.1969 115.091 32.4078 115.091 34.1703C115.091 35.575 116.135 36.4016 118.69 37.0343L120.874 37.5718C124.941 38.5359 126.63 40.1734 126.63 43.0796C126.63 46.7968 123.676 49.1249 118.978 49.1249C114.583 49.1249 111.615 46.8515 111.423 43.2577L114.46 43.2579Z" fill="white"/>
<path d="M133.032 30.881V34.3091H135.78V36.6638H133.032V44.6497C133.032 45.8904 133.582 46.4685 134.79 46.4685C135.117 46.4628 135.442 46.4398 135.766 46.3997V48.7403C135.223 48.842 134.671 48.8881 134.119 48.8778C131.193 48.8778 130.052 47.7762 130.052 44.9669V36.6638H127.951V34.3091H130.052V30.881H133.032Z" fill="white"/>
<path d="M137.372 41.5529C137.372 36.995 140.049 34.131 144.225 34.131C148.415 34.131 151.081 36.995 151.081 41.5529C151.081 46.1232 148.429 48.9747 144.225 48.9747C140.023 48.9747 137.372 46.1232 137.372 41.5529ZM148.058 41.5529C148.058 38.4263 146.629 36.581 144.225 36.581C141.822 36.581 140.394 38.4404 140.394 41.5529C140.394 44.6919 141.822 46.5232 144.225 46.5232C146.629 46.5232 148.058 44.6919 148.058 41.5529H148.058Z" fill="white"/>
<path d="M153.526 34.3074H156.355V36.773H156.424C156.615 36.0029 157.065 35.3224 157.698 34.8458C158.331 34.3691 159.108 34.1255 159.9 34.1558C160.241 34.1546 160.582 34.1918 160.916 34.2667V37.048C160.484 36.9158 160.034 36.8551 159.583 36.8683C159.152 36.8508 158.723 36.9269 158.324 37.0915C157.925 37.2562 157.566 37.5053 157.273 37.822C156.979 38.1386 156.757 38.5152 156.623 38.9258C156.488 39.3365 156.443 39.7715 156.492 40.2011V48.7933H153.526L153.526 34.3074Z" fill="white"/>
<path d="M174.592 44.5403C174.193 47.17 171.638 48.9747 168.37 48.9747C164.166 48.9747 161.557 46.1512 161.557 41.6215C161.557 37.0778 164.18 34.1309 168.245 34.1309C172.243 34.1309 174.758 36.884 174.758 41.2762V42.295H164.551V42.4747C164.504 43.0078 164.57 43.5449 164.746 44.0502C164.922 44.5555 165.203 45.0176 165.571 45.4057C165.939 45.7938 166.384 46.099 166.879 46.3011C167.373 46.5031 167.905 46.5975 168.438 46.5778C169.139 46.6436 169.843 46.4809 170.444 46.1138C171.045 45.7467 171.512 45.1948 171.776 44.5403L174.592 44.5403ZM164.565 40.2169H171.79C171.816 39.7375 171.744 39.2578 171.577 38.8079C171.41 38.3579 171.152 37.9475 170.819 37.6023C170.486 37.257 170.086 36.9845 169.643 36.8017C169.2 36.619 168.724 36.53 168.245 36.5403C167.762 36.5374 167.283 36.6304 166.836 36.814C166.389 36.9976 165.983 37.2681 165.641 37.6099C165.299 37.9517 165.027 38.3581 164.843 38.8055C164.658 39.253 164.564 39.7327 164.565 40.2169V40.2169Z" fill="white"/>
<path d="M60.3756 13.9701C60.9975 13.9254 61.6216 14.0196 62.2027 14.2459C62.7839 14.4721 63.3077 14.8249 63.7364 15.2787C64.1651 15.7325 64.488 16.276 64.6818 16.8701C64.8756 17.4641 64.9354 18.0938 64.857 18.7139C64.857 21.7639 63.2125 23.5171 60.3756 23.5171H56.9355V13.9701H60.3756ZM58.4148 22.1669H60.2104C60.6548 22.1935 61.0995 22.1205 61.5122 21.9531C61.9248 21.7857 62.2951 21.5282 62.5959 21.1993C62.8968 20.8704 63.1207 20.4784 63.2514 20.0518C63.382 19.6252 63.4161 19.1748 63.3512 18.7333C63.4114 18.2936 63.3738 17.846 63.2412 17.4225C63.1085 16.999 62.884 16.6102 62.5839 16.2839C62.2837 15.9576 61.9152 15.702 61.5049 15.5352C61.0946 15.3684 60.6525 15.2947 60.2104 15.3193H58.4148V22.1669Z" fill="white"/>
<path d="M66.5278 19.9128C66.4826 19.4393 66.5366 18.9616 66.6864 18.5103C66.8362 18.059 67.0784 17.644 67.3975 17.292C67.7167 16.9401 68.1057 16.6589 68.5396 16.4664C68.9735 16.274 69.4427 16.1746 69.9172 16.1746C70.3917 16.1746 70.8609 16.274 71.2948 16.4664C71.7287 16.6589 72.1177 16.9401 72.4369 17.292C72.756 17.644 72.9982 18.059 73.148 18.5103C73.2978 18.9616 73.3518 19.4393 73.3066 19.9128C73.3527 20.3867 73.2993 20.8651 73.1499 21.3171C73.0005 21.7692 72.7584 22.1849 72.4392 22.5375C72.12 22.8902 71.7307 23.172 71.2964 23.3649C70.862 23.5577 70.3922 23.6574 69.9172 23.6574C69.4422 23.6574 68.9724 23.5577 68.538 23.3649C68.1037 23.172 67.7144 22.8902 67.3952 22.5375C67.0759 22.1849 66.8339 21.7692 66.6845 21.3171C66.5351 20.8651 66.4817 20.3867 66.5278 19.9128ZM71.8477 19.9128C71.8477 18.3511 71.1478 17.4378 69.9195 17.4378C68.6866 17.4378 67.993 18.3511 67.993 19.9128C67.993 21.487 68.6866 22.3932 69.9195 22.3932C71.1478 22.3932 71.8477 21.4807 71.8477 19.9128H71.8477Z" fill="white"/>
<path d="M82.318 23.5171H80.8465L79.3611 18.2108H79.2489L77.7696 23.5171H76.3122L74.3311 16.3124H75.7698L77.0573 21.81H77.1633L78.6409 16.3124H80.0017L81.4794 21.81H81.5916L82.8729 16.3124H84.2913L82.318 23.5171Z" fill="white"/>
<path d="M85.9575 16.3118H87.323V17.4563H87.429C87.6088 17.0453 87.912 16.7007 88.2965 16.4706C88.681 16.2405 89.1275 16.1364 89.5738 16.1727C89.9235 16.1464 90.2746 16.1992 90.6012 16.3274C90.9278 16.4555 91.2214 16.6557 91.4603 16.9131C91.6992 17.1704 91.8773 17.4784 91.9814 17.8141C92.0854 18.1498 92.1128 18.5047 92.0615 18.8524V23.5164H90.6431V19.2095C90.6431 18.0517 90.1411 17.4759 89.0921 17.4759C88.8547 17.4648 88.6177 17.5053 88.3973 17.5946C88.1769 17.684 87.9785 17.82 87.8155 17.9934C87.6525 18.1668 87.5288 18.3735 87.4529 18.5993C87.3771 18.8251 87.3508 19.0647 87.376 19.3017V23.5165H85.9575L85.9575 16.3118Z" fill="white"/>
<path d="M94.3218 13.4999H95.7402V23.5171H94.3218V13.4999Z" fill="white"/>
<path d="M97.7118 19.9104C97.6666 19.4369 97.7207 18.9592 97.8705 18.5078C98.0203 18.0565 98.2626 17.6415 98.5818 17.2896C98.9009 16.9376 99.29 16.6564 99.7239 16.4639C100.158 16.2715 100.627 16.1721 101.102 16.1721C101.576 16.1721 102.045 16.2715 102.479 16.4639C102.913 16.6564 103.302 16.9376 103.621 17.2896C103.941 17.6415 104.183 18.0565 104.333 18.5078C104.483 18.9592 104.537 19.4369 104.491 19.9104C104.537 20.3844 104.484 20.8627 104.335 21.3148C104.185 21.7668 103.943 22.1825 103.624 22.5352C103.305 22.8878 102.915 23.1696 102.481 23.3625C102.046 23.5553 101.577 23.655 101.102 23.655C100.627 23.655 100.157 23.5553 99.7224 23.3625C99.288 23.1696 98.8987 22.8878 98.5795 22.5352C98.2602 22.1825 98.0181 21.7668 97.8687 21.3148C97.7193 20.8627 97.6658 20.3844 97.7118 19.9104ZM103.032 19.9104C103.032 18.3487 102.332 17.4354 101.104 17.4354C99.8706 17.4354 99.177 18.3487 99.177 19.9104C99.177 21.4846 99.8707 22.3909 101.104 22.3909C102.332 22.3909 103.032 21.4784 103.032 19.9104H103.032Z" fill="white"/>
<path d="M105.985 21.4808C105.985 20.1839 106.948 19.4363 108.658 19.33L110.605 19.2175V18.5957C110.605 17.8347 110.103 17.405 109.133 17.405C108.342 17.405 107.793 17.6964 107.636 18.2058H106.262C106.407 16.9683 107.569 16.1746 109.199 16.1746C111.001 16.1746 112.017 17.0738 112.017 18.5957V23.5183H110.652V22.5058H110.539C110.312 22.869 109.992 23.1651 109.613 23.3638C109.233 23.5626 108.808 23.6568 108.381 23.637C108.079 23.6685 107.774 23.6362 107.485 23.5423C107.197 23.4484 106.931 23.2949 106.706 23.0917C106.48 22.8886 106.299 22.6403 106.175 22.3628C106.051 22.0853 105.986 21.7849 105.985 21.4808ZM110.605 20.8652V20.2628L108.85 20.3753C107.86 20.4417 107.411 20.7792 107.411 21.4144C107.411 22.0628 107.972 22.4402 108.744 22.4402C108.97 22.4631 109.198 22.4402 109.415 22.3729C109.632 22.3055 109.834 22.1951 110.007 22.0482C110.181 21.9012 110.323 21.7208 110.426 21.5175C110.529 21.3143 110.59 21.0924 110.605 20.8652Z" fill="white"/>
<path d="M113.881 19.9116C113.881 17.6351 115.049 16.1929 116.865 16.1929C117.314 16.1721 117.76 16.28 118.15 16.5038C118.54 16.7276 118.859 17.0582 119.069 17.4569H119.175V13.4999H120.593V23.5171H119.234V22.3788H119.122C118.896 22.7748 118.566 23.1012 118.168 23.3228C117.77 23.5444 117.32 23.6526 116.865 23.6358C115.036 23.6359 113.881 22.1937 113.881 19.9116ZM115.347 19.9116C115.347 21.4397 116.065 22.3593 117.267 22.3593C118.462 22.3593 119.201 21.4265 119.201 19.9179C119.201 18.4163 118.455 17.4702 117.267 17.4702C116.073 17.4702 115.347 18.396 115.347 19.9116H115.347Z" fill="white"/>
<path d="M126.462 19.9128C126.417 19.4393 126.471 18.9616 126.62 18.5103C126.77 18.059 127.012 17.644 127.332 17.292C127.651 16.9401 128.04 16.6589 128.474 16.4664C128.908 16.274 129.377 16.1746 129.851 16.1746C130.326 16.1746 130.795 16.274 131.229 16.4664C131.663 16.6589 132.052 16.9401 132.371 17.292C132.69 17.644 132.932 18.059 133.082 18.5103C133.232 18.9616 133.286 19.4393 133.241 19.9128C133.287 20.3867 133.233 20.8651 133.084 21.3171C132.935 21.7692 132.693 22.1849 132.373 22.5375C132.054 22.8902 131.665 23.172 131.23 23.3649C130.796 23.5577 130.326 23.6574 129.851 23.6574C129.376 23.6574 128.906 23.5577 128.472 23.3649C128.038 23.172 127.648 22.8902 127.329 22.5375C127.01 22.1849 126.768 21.7692 126.619 21.3171C126.469 20.8651 126.416 20.3867 126.462 19.9128ZM131.782 19.9128C131.782 18.3511 131.082 17.4378 129.854 17.4378C128.621 17.4378 127.927 18.3511 127.927 19.9128C127.927 21.487 128.621 22.3932 129.854 22.3932C131.082 22.3932 131.782 21.4807 131.782 19.9128Z" fill="white"/>
<path d="M135.144 16.3118H136.509V17.4563H136.615C136.795 17.0453 137.099 16.7007 137.483 16.4706C137.867 16.2405 138.314 16.1364 138.76 16.1727C139.11 16.1464 139.461 16.1992 139.788 16.3274C140.114 16.4555 140.408 16.6557 140.647 16.9131C140.886 17.1704 141.064 17.4784 141.168 17.8141C141.272 18.1498 141.299 18.5047 141.248 18.8524V23.5164H139.83V19.2095C139.83 18.0517 139.328 17.4759 138.279 17.4759C138.041 17.4648 137.804 17.5053 137.584 17.5946C137.363 17.684 137.165 17.82 137.002 17.9934C136.839 18.1668 136.715 18.3735 136.639 18.5993C136.564 18.8251 136.537 19.0647 136.562 19.3017V23.5165H135.144V16.3118Z" fill="white"/>
<path d="M149.263 14.5186V16.3452H150.82V17.5428H149.263V21.2475C149.263 22.0022 149.573 22.3327 150.279 22.3327C150.46 22.3321 150.64 22.3211 150.82 22.2999V23.4842C150.565 23.5299 150.307 23.5542 150.048 23.5569C148.471 23.5569 147.843 23.0006 147.843 21.6116V17.5428H146.702V16.3451H147.843V14.5186H149.263Z" fill="white"/>
<path d="M152.757 13.4999H154.163V17.4702H154.276C154.464 17.0553 154.776 16.7087 155.168 16.4778C155.56 16.2468 156.014 16.1427 156.467 16.1796C156.815 16.1606 157.163 16.2188 157.486 16.3501C157.808 16.4814 158.098 16.6824 158.335 16.939C158.571 17.1955 158.748 17.5012 158.853 17.8342C158.958 18.1672 158.989 18.5194 158.942 18.8655V23.5171H157.522V19.2163C157.522 18.0655 156.988 17.4827 155.986 17.4827C155.742 17.4626 155.496 17.4962 155.267 17.5811C155.038 17.666 154.829 17.8001 154.657 17.9741C154.485 18.1481 154.352 18.3577 154.269 18.5883C154.186 18.819 154.154 19.065 154.176 19.3092V23.517H152.757L152.757 13.4999Z" fill="white"/>
<path d="M167.213 21.5706C167.02 22.2291 166.603 22.7986 166.034 23.1797C165.464 23.5607 164.779 23.729 164.099 23.655C163.625 23.6675 163.155 23.5766 162.72 23.3886C162.285 23.2005 161.896 22.9198 161.58 22.566C161.264 22.2122 161.029 21.7937 160.89 21.3396C160.752 20.8855 160.714 20.4066 160.779 19.9362C160.716 19.4644 160.754 18.9845 160.892 18.5291C161.031 18.0736 161.265 17.6532 161.579 17.2962C161.893 16.9393 162.28 16.6542 162.714 16.4603C163.147 16.2664 163.618 16.1681 164.093 16.1722C166.092 16.1722 167.299 17.5418 167.299 19.8042V20.3003H162.224V20.38C162.201 20.6444 162.235 20.9105 162.321 21.1613C162.407 21.4121 162.545 21.6421 162.725 21.8364C162.905 22.0307 163.124 22.1852 163.367 22.2898C163.611 22.3944 163.873 22.4469 164.138 22.444C164.477 22.4848 164.821 22.4236 165.125 22.2681C165.43 22.1125 165.681 21.8697 165.848 21.5706L167.213 21.5706ZM162.224 19.2487H165.854C165.872 19.0069 165.839 18.7641 165.758 18.5357C165.676 18.3074 165.548 18.0986 165.382 17.9228C165.215 17.747 165.014 17.6082 164.79 17.5151C164.567 17.422 164.327 17.3768 164.085 17.3823C163.839 17.3792 163.596 17.4254 163.369 17.5181C163.141 17.6108 162.935 17.7482 162.762 17.9222C162.588 18.0961 162.451 18.3031 162.359 18.5309C162.266 18.7588 162.22 19.0028 162.224 19.2487H162.224Z" fill="white"/>
</g>
<defs>
<clipPath id="clip0_631_15260">
<rect width="191" height="64" fill="white"/>
</clipPath>
</defs>
</svg>
