<svg width="125" height="124" viewBox="0 0 125 124" fill="none" xmlns="http://www.w3.org/2000/svg">
<g clip-path="url(#clip0_140_9423)">
<path d="M51.6462 78.7112L17.0966 113.253C15.5078 114.849 15.5078 117.422 17.0966 119.011C18.6855 120.6 21.2622 120.6 22.851 119.011L57.4006 84.4695C58.9934 82.8732 58.9934 80.3 57.4006 78.7112C55.8118 77.1184 53.2346 77.1184 51.6462 78.7112ZM107.903 113.253L73.3534 78.7112C71.7645 77.1224 69.1918 77.1224 67.603 78.7112C66.0142 80.3 66.0142 82.8728 67.603 84.4695L102.153 119.011C103.741 120.6 106.314 120.6 107.903 119.011C109.496 117.422 109.496 114.849 107.903 113.253Z" fill="#E57E25"/>
<path d="M62.4999 7.86035C64.6427 7.86035 66.375 9.59618 66.375 11.7354V104.735C66.375 106.882 64.6427 108.61 62.4999 108.61C60.3572 108.61 58.6249 106.882 58.6249 104.735V11.7354C58.6249 9.59618 60.3567 7.86035 62.4999 7.86035Z" fill="#D5721D"/>
<path d="M8.25011 3.98535H116.75C121.028 3.98535 124.5 7.45346 124.5 11.7355V85.3602C124.5 89.6382 121.028 93.1103 116.75 93.1103H8.25011C3.9721 93.1103 0.5 89.6382 0.5 85.3602V11.7355C0.5 7.45346 3.9721 3.98535 8.25011 3.98535Z" fill="#009398"/>
<path d="M12.1252 11.7354H112.875C115.018 11.7354 116.75 13.4712 116.75 15.6104V81.4854C116.75 83.6322 115.018 85.3605 112.875 85.3605H12.1252C9.98241 85.3605 8.25012 83.6322 8.25012 81.4854V15.6104C8.25012 13.4712 9.98196 11.7354 12.1252 11.7354Z" fill="white"/>
<path d="M43.1248 42.7354H27.625V73.7354H43.1248V42.7354Z" fill="#BE1B1B"/>
<path d="M70.2496 27.2354H54.7499V73.7351H70.2496V27.2354Z" fill="#0FA187"/>
<path d="M97.3747 34.9854H81.8749V73.7355H97.3747V34.9854Z" fill="#4789F1"/>
</g>
<defs>
<clipPath id="clip0_140_9423">
<rect width="124" height="124" fill="white" transform="translate(0.5)"/>
</clipPath>
</defs>
</svg>
