<svg width="124" height="124" viewBox="0 0 124 124" fill="none" xmlns="http://www.w3.org/2000/svg">
<path d="M62 124C96.2417 124 124 96.2417 124 62C124 27.7583 96.2417 0 62 0C27.7583 0 0 27.7583 0 62C0 96.2417 27.7583 124 62 124Z" fill="#E57E25"/>
<path d="M1.61421 66.8449C9.63214 59.1879 22.8138 56.7566 32.2887 61.1807C23.8789 73.1755 17.6833 86.8243 14.2312 101.523C15.2741 102.783 16.3746 103.989 17.5128 105.161C17.825 104.866 18.0708 104.497 18.1682 104.047C21.4254 89.2468 27.5989 75.5337 36.0486 63.5345C41.7061 67.9254 44.4828 75.1528 43.8539 84.4263L43.8451 84.5459L43.8495 84.6676C44.4053 98.0928 52.1442 110.378 64.5486 117.525C68.4502 119.775 72.5378 121.341 76.6519 122.24C80.3232 121.349 83.8616 120.132 87.2451 118.621C80.4937 119.144 73.346 117.483 66.7585 113.688C55.7114 107.322 48.8117 96.4565 48.2781 84.6012C49.1527 71.1738 43.8318 63.8445 38.7035 59.923C41.9961 55.6162 45.5944 51.5574 49.4605 47.771C65.3015 62.5026 80.197 78.2816 93.9145 94.9641L103.465 106.582L106.886 103.768L97.3356 92.1497C83.5561 75.392 68.6008 59.5377 52.6956 44.7286C55.7734 41.9408 59.0063 39.3213 62.3786 36.8834C67.6708 43.5727 76.1803 46.8499 86.8155 46.1501C96.8219 46.6041 106.213 52.0512 112.596 61.1054C117.561 68.1469 120.087 76.5213 119.835 84.3333C121.214 80.7661 122.268 77.0394 122.973 73.1888C121.662 68.0716 119.392 63.0584 116.217 58.5546C109.009 48.3312 98.3165 42.1954 86.8819 41.7216L86.7601 41.7171L86.6406 41.726C77.6284 42.3327 70.4896 39.7088 66.0588 34.3303C77.4446 26.7641 90.272 21.1996 104.045 18.166C104.494 18.0664 104.853 17.8095 105.148 17.4973C103.978 16.3636 102.774 15.2653 101.518 14.2268C87.8119 17.4464 75.0244 23.0618 63.6341 30.628C59.3251 21.9746 60.8331 9.81371 67.3254 1.46807L68.2266 0.31C66.1806 0.106286 64.1036 0 62 0V1.35957C55.8576 11.0825 54.9431 23.7438 59.9496 33.1811C56.2761 35.8271 52.7642 38.6791 49.4251 41.7216C42.1866 35.1031 34.7776 28.6772 27.1649 22.5149L19.8245 16.5717C18.7351 17.5836 17.6855 18.6332 16.6714 19.7204L24.3793 25.9603C31.8392 31.9986 39.1021 38.2916 46.2011 44.7751C42.1511 48.7564 38.3824 53.0255 34.9414 57.5559C34.689 57.4275 34.4321 57.2946 34.1908 57.1817C23.6884 52.2638 9.87572 54.3253 0.420714 62H0C0 64.0593 0.106286 66.092 0.301143 68.0981L1.61421 66.8449Z" fill="#102D6E"/>
</svg>
