<svg width="215" height="64" viewBox="0 0 215 64" fill="none" xmlns="http://www.w3.org/2000/svg">
<path d="M206.737 63.8408H8.104C3.73408 63.8408 0.158691 60.2587 0.158691 55.8806V8.11942C0.158691 3.74131 3.73408 0.159225 8.104 0.159225H206.737C211.107 0.159225 214.682 3.74131 214.682 8.11942V55.8806C214.682 60.2587 211.107 63.8408 206.737 63.8408Z" fill="black"/>
<path d="M206.737 0.159225H8.104C3.73408 0.159225 0.158691 3.74131 0.158691 8.11942V55.8806C0.158691 60.2587 3.73408 63.8408 8.104 63.8408H206.737C211.107 63.8408 214.682 60.2587 214.682 55.8806V8.11942C214.682 3.74131 211.107 0.159225 206.737 0.159225ZM206.737 1.43286C210.417 1.43286 213.411 4.4329 213.411 8.11942V55.8806C213.411 59.5678 210.417 62.5678 206.737 62.5678H8.104C4.42437 62.5678 1.42994 59.5678 1.42994 55.8806V8.11942C1.42994 4.4329 4.42437 1.43286 8.104 1.43286H206.737Z" fill="#A6A6A6"/>
<path d="M75.5095 16.467C75.5095 17.8008 75.1153 18.863 74.3257 19.6554C73.4288 20.5976 72.2599 21.069 70.8229 21.069C69.4468 21.069 68.2767 20.5914 67.3146 19.6349C66.3506 18.679 65.8696 17.4937 65.8696 16.0795C65.8696 14.6647 66.3506 13.48 67.3146 12.5235C68.2767 11.5677 69.4468 11.0894 70.8229 11.0894C71.5057 11.0894 72.1594 11.2232 72.7801 11.49C73.4008 11.7574 73.8987 12.1125 74.2712 12.5571L73.4331 13.3972C72.8019 12.6417 71.9328 12.2642 70.8229 12.2642C69.8192 12.2642 68.9515 12.6175 68.2191 13.3245C67.4865 14.0323 67.1204 14.9501 67.1204 16.0795C67.1204 17.2089 67.4865 18.1267 68.2191 18.8345C68.9515 19.5416 69.8192 19.8948 70.8229 19.8948C71.8876 19.8948 72.7752 19.5397 73.4858 18.8283C73.9471 18.3649 74.2139 17.7208 74.2853 16.8935H70.8229V15.7461H75.4431C75.4877 15.9956 75.5095 16.2351 75.5095 16.467Z" fill="white"/>
<path d="M75.5092 16.4671H75.3503C75.3491 17.7705 74.9691 18.7829 74.213 19.5429L74.2113 19.5442L74.2107 19.5455C73.3422 20.4552 72.2261 20.908 70.8226 20.9099C69.4832 20.908 68.3621 20.4502 67.426 19.5224C66.4919 18.5926 66.03 17.4577 66.0283 16.0796C66.03 14.7009 66.4919 13.5666 67.426 12.6375C68.3621 11.709 69.4832 11.2506 70.8226 11.2487C71.4849 11.2487 72.1156 11.3782 72.7171 11.6362C73.3192 11.8962 73.7948 12.2369 74.1492 12.6599L74.2709 12.5572L74.1585 12.4447L73.3205 13.2854L73.4328 13.3973L73.5552 13.2955C72.8946 12.5025 71.9674 12.1027 70.8226 12.1051C69.7818 12.1038 68.8662 12.4763 68.1088 13.2103C67.3442 13.9466 66.9599 14.916 66.9612 16.0796C66.9599 17.2432 67.3442 18.2126 68.1088 18.9489C68.8662 19.6829 69.7818 20.0554 70.8226 20.0541C71.9226 20.0561 72.86 19.6822 73.5979 18.941C74.0908 18.4459 74.3702 17.76 74.4435 16.9073L74.4582 16.7344H70.9815V15.9054H75.4428V15.7462L75.2863 15.7743C75.3298 16.0156 75.3503 16.245 75.3503 16.4671H75.5092H75.6681C75.6681 16.2251 75.6457 15.9764 75.5992 15.7177L75.5757 15.587H70.6637V16.8936V17.0528H74.285V16.8936L74.1268 16.8799C74.0567 17.681 73.8021 18.2843 73.3732 18.7159C72.6904 19.3974 71.8525 19.7338 70.8226 19.7357C69.8561 19.7345 69.0362 19.4011 68.3292 18.7202C67.6291 18.0416 67.2808 17.1754 67.279 16.0796C67.2808 14.9838 67.6291 14.1176 68.3292 13.4391C69.0362 12.7581 69.8561 12.4248 70.8226 12.4235C71.8971 12.426 72.7085 12.7817 73.3112 13.5L73.423 13.6331L74.3832 12.6698L74.4862 12.5666L74.3924 12.4552C74.002 11.9889 73.4819 11.6187 72.8425 11.3439C72.2019 11.0683 71.5259 10.9303 70.8226 10.9303C69.4099 10.929 68.1908 11.4266 67.2019 12.4111C66.2094 13.3937 65.7092 14.6288 65.7105 16.0796C65.7092 17.5298 66.2094 18.7655 67.2026 19.7488C68.1908 20.7327 69.4099 21.2295 70.8226 21.2283C72.2938 21.2295 73.5142 20.74 74.4403 19.7655L74.3254 19.6555L74.4377 19.7681C75.2609 18.944 75.6693 17.8309 75.6681 16.4671H75.5092Z" fill="white"/>
<path d="M82.8341 12.477H78.4921V15.5057H82.4077V16.6535H78.4921V19.6822H82.8341V20.8557H77.2681V11.3035H82.8341V12.477Z" fill="white"/>
<path d="M82.8338 12.4769V12.3177H78.3329V15.6648H82.2486V16.4938L78.3329 16.4943V19.8414H82.6749V20.6965H77.4267V11.4627H82.6749V12.4769H82.8338V12.3177V12.4769H82.9927V11.3034V11.1442H77.1089V21.0149H82.9927V19.6822V19.523H78.6508V16.8127H82.5664V15.5056V15.3464H78.6508V12.6361H82.9927V12.4769H82.8338Z" fill="white"/>
<path d="M88.0002 20.8557H86.7743V12.477H84.1113V11.3035H90.6632V12.477H88.0002V20.8557Z" fill="white"/>
<path d="M88.0004 20.8557V20.6965H86.9334V12.3177H84.2704V11.4627H90.5045V12.3177H87.8415V20.8557H88.0004V20.6965V20.8557H88.1594V12.6361H90.8223V11.3034V11.1442H83.9526V12.4769V12.6361H86.6156V21.0149H88.0004H88.1594V20.8557H88.0004Z" fill="white"/>
<path d="M95.4038 20.8557V11.3035H96.6285V20.8557H95.4038Z" fill="white"/>
<path d="M95.4035 20.8557H95.5624V11.4627H96.4693V20.6965H95.4035V20.8557H95.5624H95.4035V21.0149H96.6282H96.7871V11.1442H95.4035H95.2446V21.0149H95.4035V20.8557Z" fill="white"/>
<path d="M102.063 20.8557H100.837V12.477H98.1738V11.3035H104.726V12.477H102.063V20.8557Z" fill="white"/>
<path d="M102.063 20.8557V20.6965H100.996V12.3177H98.3329V11.4627H104.567V12.3177H101.904V20.8557H102.063V20.6965V20.8557H102.222V12.6361H104.885V11.3034V11.1442H98.0151V12.4769V12.6361H100.678V21.0149H102.063H102.222V20.8557H102.063Z" fill="white"/>
<path d="M111.042 18.8215C111.748 19.5373 112.612 19.8948 113.633 19.8948C114.654 19.8948 115.518 19.5373 116.222 18.8215C116.929 18.1057 117.283 17.1908 117.283 16.0795C117.283 14.9683 116.929 14.0533 116.222 13.3375C115.518 12.6218 114.654 12.2642 113.633 12.2642C112.612 12.2642 111.748 12.6218 111.042 13.3375C110.338 14.0533 109.984 14.9683 109.984 16.0795C109.984 17.1908 110.338 18.1057 111.042 18.8215ZM117.129 19.6212C116.191 20.5869 115.026 21.069 113.633 21.069C112.239 21.069 111.073 20.5869 110.138 19.6212C109.2 18.6566 108.733 17.4757 108.733 16.0795C108.733 14.6833 109.2 13.5023 110.138 12.5379C111.073 11.572 112.239 11.0894 113.633 11.0894C115.018 11.0894 116.181 11.5745 117.123 12.5441C118.063 13.5136 118.533 14.6921 118.533 16.0795C118.533 17.4757 118.064 18.6566 117.129 19.6212Z" fill="white"/>
<path d="M111.042 18.8216L110.929 18.9335C111.661 19.6779 112.574 20.056 113.633 20.0541C114.69 20.056 115.605 19.6779 116.335 18.9335C117.072 18.1884 117.442 17.2244 117.441 16.0796C117.442 14.9348 117.072 13.9708 116.335 13.2257C115.605 12.4813 114.69 12.1032 113.633 12.1051C112.574 12.1032 111.661 12.4813 110.929 13.2257C110.194 13.9708 109.823 14.9348 109.825 16.0796C109.823 17.2244 110.194 18.1884 110.929 18.9335L111.042 18.8216L111.155 18.7097C110.481 18.0224 110.144 17.1579 110.143 16.0796C110.144 15.0013 110.481 14.1368 111.155 13.4496C111.835 12.7624 112.648 12.4254 113.633 12.4235C114.616 12.4254 115.431 12.7624 116.109 13.4496C116.785 14.1368 117.122 15.0013 117.123 16.0796C117.122 17.1579 116.785 18.0224 116.109 18.7097C115.431 19.3968 114.616 19.7338 113.633 19.7357C112.648 19.7338 111.835 19.3968 111.155 18.7097L111.042 18.8216ZM117.128 19.6213L117.015 19.5106C116.104 20.4459 114.989 20.908 113.633 20.9099C112.275 20.908 111.161 20.4459 110.251 19.5106L110.247 19.5057L110.251 19.5106C109.342 18.5721 108.893 17.4403 108.892 16.0796C108.893 14.7189 109.342 13.5871 110.251 12.6486C111.161 11.7133 112.275 11.2506 113.633 11.2487C114.981 11.2506 116.092 11.7152 117.009 12.6555C117.921 13.5983 118.372 14.7283 118.374 16.0796C118.372 17.4403 117.922 18.5721 117.015 19.5106L117.128 19.6213L117.243 19.7319C118.206 18.7407 118.693 17.5112 118.692 16.0796C118.693 14.6562 118.204 13.4292 117.236 12.4335C116.268 11.434 115.055 10.9286 113.633 10.9303C112.202 10.9286 110.986 11.4316 110.024 12.4273V12.4267C109.058 13.4185 108.573 14.648 108.574 16.0796C108.573 17.5112 109.058 18.7407 110.024 19.7325L110.028 19.737L110.024 19.7319C110.986 20.7276 112.202 21.2295 113.633 21.2283C115.062 21.2295 116.279 20.7276 117.243 19.7319L117.128 19.6213Z" fill="white"/>
<path d="M120.252 20.8557V11.3035H121.743L126.377 18.7345H126.43L126.377 16.8936V11.3035H127.603V20.8557H126.324L121.476 13.0646H121.424L121.476 14.9061V20.8557H120.252Z" fill="white"/>
<path d="M120.253 20.8557H120.412V11.4627H121.655L126.289 18.8937H126.43H126.593L126.536 16.8912V11.4627H127.444V20.6965H126.413L121.565 12.9054H121.424H121.261L121.318 14.9086V20.6965H120.253V20.8557H120.412H120.253V21.0149H121.477H121.636V14.9035L121.583 13.0603L121.424 13.0646V13.2238H121.477V13.0646L121.342 13.1493L126.236 21.0149H127.603H127.762V11.1442H126.377H126.218V16.8955L126.271 18.7388L126.43 18.7345V18.5752H126.377V18.7345L126.512 18.6499L121.832 11.1442H120.253H120.094V21.0149H120.253V20.8557Z" fill="white"/>
<path d="M170.086 47.9204H173.052V28.018H170.086V47.9204ZM196.794 35.1872L193.395 43.8159H193.293L189.765 35.1872H186.571L191.861 47.2474L188.845 53.9558H191.939L200.091 35.1872H196.794ZM179.978 45.6598C179.006 45.6598 177.652 45.1735 177.652 43.9696C177.652 42.4334 179.34 41.8445 180.795 41.8445C182.1 41.8445 182.712 42.1262 183.504 42.5106C183.274 44.3539 181.69 45.6598 179.978 45.6598ZM180.336 34.7518C178.189 34.7518 175.966 35.6996 175.046 37.7991L177.677 38.8999C178.24 37.7991 179.287 37.4403 180.387 37.4403C181.92 37.4403 183.479 38.3626 183.504 40.0013V40.2058C182.967 39.8986 181.818 39.4378 180.412 39.4378C177.576 39.4378 174.687 40.9993 174.687 43.9185C174.687 46.5815 177.013 48.2972 179.619 48.2972C181.613 48.2972 182.712 47.4011 183.403 46.3514H183.504V47.8874H186.366V40.2568C186.366 36.7239 183.735 34.7518 180.336 34.7518ZM162.011 37.61H157.793V30.788H162.011C164.228 30.788 165.486 32.6268 165.486 34.1989C165.486 35.7413 164.228 37.61 162.011 37.61ZM161.935 28.018H154.83V47.9204H157.793V40.38H161.935C165.221 40.38 168.451 37.9962 168.451 34.1989C168.451 30.4017 165.221 28.018 161.935 28.018ZM123.192 45.6635C121.143 45.6635 119.428 43.9452 119.428 41.5852C119.428 39.2003 121.143 37.4559 123.192 37.4559C125.214 37.4559 126.801 39.2003 126.801 41.5852C126.801 43.9452 125.214 45.6635 123.192 45.6635ZM126.596 36.3017H126.494C125.829 35.5068 124.548 34.7886 122.935 34.7886C119.556 34.7886 116.459 37.7636 116.459 41.5852C116.459 45.3812 119.556 48.3308 122.935 48.3308C124.548 48.3308 125.829 47.6125 126.494 46.7923H126.596V47.7667C126.596 50.3576 125.214 51.7425 122.987 51.7425C121.169 51.7425 120.043 50.4341 119.581 49.3314L116.996 50.4086C117.739 52.2039 119.71 54.4099 122.987 54.4099C126.468 54.4099 129.412 52.3576 129.412 47.3563V35.199H126.596V36.3017ZM131.46 47.9204H134.43V28.0173H131.46V47.9204ZM138.808 41.3545C138.731 38.7381 140.83 37.4048 142.34 37.4048C143.519 37.4048 144.517 37.9943 144.849 38.8415L138.808 41.3545ZM148.024 39.0976C147.461 37.5839 145.745 34.7886 142.238 34.7886C138.756 34.7886 135.864 37.533 135.864 41.5597C135.864 45.3558 138.731 48.3308 142.571 48.3308C145.669 48.3308 147.461 46.4328 148.203 45.3301L145.899 43.7909C145.132 44.9197 144.081 45.6635 142.571 45.6635C141.06 45.6635 139.985 44.9708 139.294 43.6118L148.331 39.8669L148.024 39.0976ZM76.0264 36.8662V39.7387H82.8871C82.6823 41.3545 82.1447 42.5342 81.3254 43.355C80.3273 44.3556 78.7656 45.4583 76.0264 45.4583C71.8022 45.4583 68.4999 42.0472 68.4999 37.8152C68.4999 33.5833 71.8022 30.1717 76.0264 30.1717C78.3049 30.1717 79.9685 31.0696 81.1975 32.2238L83.2199 30.1978C81.5048 28.5559 79.2261 27.2992 76.0264 27.2992C70.2404 27.2992 65.3765 32.0186 65.3765 37.8152C65.3765 43.6118 70.2404 48.3308 76.0264 48.3308C79.1498 48.3308 81.5048 47.3054 83.3478 45.3812C85.2423 43.4832 85.8313 40.8159 85.8313 38.6617C85.8313 37.9943 85.7803 37.3793 85.6774 36.8662H76.0264ZM93.6314 45.6635C91.583 45.6635 89.8164 43.9707 89.8164 41.5597C89.8164 39.1231 91.583 37.4559 93.6314 37.4559C95.6791 37.4559 97.4456 39.1231 97.4456 41.5597C97.4456 43.9707 95.6791 45.6635 93.6314 45.6635ZM93.6314 34.7886C89.8933 34.7886 86.8468 37.6355 86.8468 41.5597C86.8468 45.4583 89.8933 48.3308 93.6314 48.3308C97.3687 48.3308 100.415 45.4583 100.415 41.5597C100.415 37.6355 97.3687 34.7886 93.6314 34.7886ZM108.431 45.6635C106.383 45.6635 104.616 43.9707 104.616 41.5597C104.616 39.1231 106.383 37.4559 108.431 37.4559C110.478 37.4559 112.245 39.1231 112.245 41.5597C112.245 43.9707 110.478 45.6635 108.431 45.6635ZM108.431 34.7886C104.693 34.7886 101.647 37.6355 101.647 41.5597C101.647 45.4583 104.693 48.3308 108.431 48.3308C112.168 48.3308 115.215 45.4583 115.215 41.5597C115.215 37.6355 112.168 34.7886 108.431 34.7886Z" fill="white"/>
<path d="M16.8593 51.7245L16.7413 51.6113C16.2789 51.1211 16.0059 50.3599 16.0059 49.3743V49.6063V14.3967C16.0059 14.3935 16.0059 14.3912 16.0059 14.3886C16.0059 14.3916 16.0059 14.3942 16.0059 14.3974V14.63C16.0059 13.5627 16.3241 12.7587 16.8574 12.2766L36.5456 32.0012L16.8593 51.7245ZM16.0059 14.3867C16.0059 14.299 16.0082 14.2138 16.0127 14.1299C16.0082 14.2132 16.0059 14.299 16.0059 14.3867ZM16.0127 14.1261C16.0127 14.125 16.0127 14.1237 16.0132 14.1224C16.0127 14.1237 16.0127 14.125 16.0127 14.1261ZM16.0132 14.1149C16.0132 14.1143 16.0132 14.1137 16.0132 14.113C16.0132 14.1137 16.0132 14.1143 16.0132 14.1149Z" fill="url(#paint0_linear_631_15261)"/>
<path d="M43.1071 38.8115L43.2568 38.7263L51.0319 34.3003C51.7732 33.8781 52.2673 33.3662 52.5137 32.8246C52.2679 33.3662 51.7737 33.8787 51.0319 34.3009L43.2568 38.7269L43.1071 38.8115ZM43.109 38.5782L36.5454 32.0012L43.1084 25.4253L51.0319 29.9352C52.0381 30.508 52.603 31.2462 52.6974 32.0006C52.6974 32.0012 52.6974 32.0025 52.6974 32.0036C52.603 32.7561 52.0381 33.495 51.0319 34.0677L43.109 38.5782Z" fill="url(#paint1_linear_631_15261)"/>
<path d="M18.263 52.4757C17.713 52.4757 17.2331 52.2966 16.8589 51.9583L16.8595 51.9577C17.2337 52.296 17.7143 52.4757 18.2643 52.4757C18.3119 52.4757 18.3604 52.4744 18.4095 52.472C18.3598 52.4744 18.3107 52.4757 18.263 52.4757ZM18.2636 52.2425C17.7136 52.2431 17.2337 52.0634 16.8595 51.7251V51.7246L36.5458 32.0013L43.1094 38.5783L20.0438 51.7083C19.4057 52.0709 18.801 52.2425 18.2636 52.2425ZM16.854 51.954C16.8192 51.9223 16.785 51.8887 16.7515 51.8539L16.854 51.954Z" fill="url(#paint2_linear_631_15261)"/>
<path d="M36.5456 32.0012L16.8574 12.2766C17.2316 11.9389 17.7109 11.7598 18.2602 11.7598C18.7991 11.7598 19.4042 11.9321 20.0436 12.2952L43.1086 25.4252L36.5456 32.0012ZM43.257 25.2767L20.0436 12.0628C19.4042 11.6995 18.7991 11.5272 18.2602 11.5272C18.2577 11.5272 18.256 11.5272 18.2534 11.5272C18.2566 11.5272 18.259 11.5272 18.2628 11.5272C18.8004 11.5272 19.4048 11.6988 20.0436 12.0621L43.257 25.2767Z" fill="url(#paint3_linear_631_15261)"/>
<path d="M18.4092 52.4719C18.9089 52.4433 19.462 52.271 20.0436 51.9408L43.1072 38.8114L20.0436 51.9408C19.4625 52.2716 18.9089 52.4433 18.4092 52.4719ZM16.8586 51.9582L16.8537 51.9539C16.8555 51.9551 16.8574 51.9569 16.8586 51.9582ZM16.7512 51.8537L16.7412 51.8439V51.8432C16.745 51.8469 16.748 51.8506 16.7512 51.8537Z" fill="black"/>
<path d="M43.1074 38.8115L43.2571 38.7263L43.1074 38.8115Z" fill="url(#paint4_linear_631_15261)"/>
<path d="M18.264 52.4757C17.714 52.4757 17.2335 52.296 16.8593 51.9577L16.8586 51.9583C16.8574 51.957 16.8555 51.9553 16.8537 51.954L16.7512 51.8539C16.748 51.8507 16.745 51.847 16.7412 51.8433L16.8593 51.7251C17.2335 52.0634 17.7134 52.2431 18.2634 52.2425C18.8008 52.2425 19.4054 52.0709 20.0436 51.7083L43.1091 38.5783L43.2569 38.7264L43.1072 38.8115L20.0436 51.9409C19.462 52.2711 18.9089 52.4434 18.4092 52.472C18.3601 52.4744 18.3117 52.4757 18.264 52.4757Z" fill="url(#paint5_linear_631_15261)"/>
<path d="M16.7413 51.844C16.2789 51.3538 16.0059 50.5926 16.0059 49.607V49.6064C16.0059 50.5926 16.2789 51.3532 16.7413 51.8434V51.844Z" fill="black"/>
<path d="M16.7413 51.8434C16.2789 51.3532 16.0059 50.5927 16.0059 49.6064V49.3745C16.0059 50.3601 16.2789 51.1212 16.7413 51.6114L16.8593 51.7246L16.7413 51.8434Z" fill="url(#paint6_linear_631_15261)"/>
<path d="M16.7412 51.8434L16.8593 51.7246V51.7251L16.7412 51.8434Z" fill="url(#paint7_linear_631_15261)"/>
<path d="M52.5142 32.8246C52.6364 32.5559 52.6979 32.2799 52.6979 32.0036C52.6979 32.0032 52.6979 32.0025 52.6979 32.0025C52.6979 32.2792 52.6364 32.5553 52.5142 32.8246Z" fill="black"/>
<path d="M43.2572 38.7263L43.1094 38.5783L51.0323 34.0677C52.0385 33.495 52.6034 32.7562 52.6978 32.0036C52.6978 32.2798 52.6363 32.5559 52.5141 32.8246C52.2676 33.3662 51.7736 33.8781 51.0323 34.3003L43.2572 38.7263Z" fill="url(#paint8_linear_631_15261)"/>
<path d="M52.6976 32.0012V32.0005C52.697 31.1677 52.1414 30.3351 51.0321 29.7032L43.257 25.2772H43.2563L43.257 25.2767L51.0321 29.7026C52.1427 30.3345 52.6989 31.1684 52.6976 32.0012Z" fill="#404040"/>
<path d="M52.6979 32.0005C52.6035 31.2462 52.0386 30.508 51.0324 29.9352L43.1089 25.4253L43.2567 25.2772H43.2573L51.0324 29.7032C52.1417 30.3351 52.6973 31.1678 52.6979 32.0005Z" fill="url(#paint9_linear_631_15261)"/>
<path d="M16.0059 14.3886C16.0059 14.388 16.0059 14.3873 16.0059 14.3867C16.0059 14.3873 16.0059 14.388 16.0059 14.3886ZM16.0127 14.1299C16.0127 14.1286 16.0127 14.1274 16.0127 14.1261C16.0127 14.1274 16.0127 14.1286 16.0127 14.1299ZM16.0132 14.1224C16.0132 14.1199 16.0132 14.1175 16.0132 14.1149C16.0132 14.1175 16.0132 14.1199 16.0132 14.1224ZM16.0132 14.113C16.1052 12.4775 16.9928 11.5328 18.2485 11.5272C17.7041 11.5304 17.2299 11.7095 16.8587 12.0447V12.044L16.8543 12.0485C16.8152 12.0838 16.778 12.1212 16.7413 12.1598C16.3241 12.6019 16.061 13.2642 16.0132 14.113Z" fill="#404040"/>
<path d="M16.0059 14.63V14.3974C16.0059 14.3942 16.0059 14.3917 16.0059 14.3887C16.0059 14.388 16.0059 14.3874 16.0059 14.3867C16.0059 14.299 16.0082 14.2132 16.0127 14.1299C16.0127 14.1287 16.0127 14.1274 16.0127 14.1261C16.0127 14.125 16.0127 14.1237 16.0132 14.1225C16.0132 14.1199 16.0132 14.1175 16.0132 14.115C16.0132 14.1143 16.0132 14.1137 16.0132 14.1131C16.061 13.2642 16.3241 12.6019 16.7413 12.1598L16.8574 12.2767C16.3241 12.7587 16.0059 13.5627 16.0059 14.63ZM16.8543 12.0485L16.8587 12.0441C16.8574 12.046 16.8555 12.0472 16.8543 12.0485Z" fill="url(#paint10_linear_631_15261)"/>
<path d="M43.1085 25.4252L20.0436 12.2952C19.4042 11.9321 18.799 11.7598 18.2602 11.7598C17.7109 11.7598 17.2316 11.9389 16.8574 12.2766L16.7412 12.1597C16.7779 12.1212 16.8151 12.0838 16.8542 12.0484C16.8555 12.0472 16.8574 12.0459 16.8586 12.0446C17.2298 11.7095 17.704 11.5304 18.2484 11.5272C18.2497 11.5272 18.2515 11.5272 18.2534 11.5272C18.2559 11.5272 18.2577 11.5272 18.2602 11.5272C18.799 11.5272 19.4042 11.6995 20.0436 12.0628L43.2569 25.2767L43.2563 25.2772L43.1085 25.4252Z" fill="url(#paint11_linear_631_15261)"/>
<defs>
<linearGradient id="paint0_linear_631_15261" x1="34.7998" y1="14.0253" x2="8.08149" y2="40.6937" gradientUnits="userSpaceOnUse">
<stop stop-color="#00A0FF"/>
<stop offset="0.00657445" stop-color="#00A1FF"/>
<stop offset="0.2601" stop-color="#00BEFF"/>
<stop offset="0.5122" stop-color="#00D2FF"/>
<stop offset="0.7604" stop-color="#00DFFF"/>
<stop offset="1" stop-color="#00E3FF"/>
</linearGradient>
<linearGradient id="paint1_linear_631_15261" x1="53.9234" y1="32.0022" x2="15.4729" y2="32.0022" gradientUnits="userSpaceOnUse">
<stop stop-color="#FFE000"/>
<stop offset="0.4087" stop-color="#FFBD00"/>
<stop offset="0.7754" stop-color="#FFA500"/>
<stop offset="1" stop-color="#FF9C00"/>
</linearGradient>
<linearGradient id="paint2_linear_631_15261" x1="39.6104" y1="35.6555" x2="3.37836" y2="71.8198" gradientUnits="userSpaceOnUse">
<stop stop-color="#FF3A44"/>
<stop offset="1" stop-color="#C31162"/>
</linearGradient>
<linearGradient id="paint3_linear_631_15261" x1="11.7545" y1="0.439607" x2="27.9335" y2="16.5884" gradientUnits="userSpaceOnUse">
<stop stop-color="#32A071"/>
<stop offset="0.0685" stop-color="#2DA771"/>
<stop offset="0.4762" stop-color="#15CF74"/>
<stop offset="0.8009" stop-color="#06E775"/>
<stop offset="1" stop-color="#00F076"/>
</linearGradient>
<linearGradient id="paint4_linear_631_15261" x1="53.9236" y1="32.0024" x2="15.4733" y2="32.0024" gradientUnits="userSpaceOnUse">
<stop stop-color="#CCB300"/>
<stop offset="0.4087" stop-color="#CC9700"/>
<stop offset="0.7754" stop-color="#CC8400"/>
<stop offset="1" stop-color="#CC7D00"/>
</linearGradient>
<linearGradient id="paint5_linear_631_15261" x1="39.6102" y1="35.6555" x2="3.37812" y2="71.8198" gradientUnits="userSpaceOnUse">
<stop stop-color="#CC2E36"/>
<stop offset="1" stop-color="#9C0E4E"/>
</linearGradient>
<linearGradient id="paint6_linear_631_15261" x1="34.7999" y1="14.0255" x2="8.08156" y2="40.6939" gradientUnits="userSpaceOnUse">
<stop stop-color="#008DE0"/>
<stop offset="0.00657445" stop-color="#008DE0"/>
<stop offset="0.2601" stop-color="#00A7E0"/>
<stop offset="0.5122" stop-color="#00B8E0"/>
<stop offset="0.7604" stop-color="#00C4E0"/>
<stop offset="1" stop-color="#00C7E0"/>
</linearGradient>
<linearGradient id="paint7_linear_631_15261" x1="39.6108" y1="35.656" x2="3.37975" y2="71.8213" gradientUnits="userSpaceOnUse">
<stop stop-color="#E0333C"/>
<stop offset="1" stop-color="#AB0F56"/>
</linearGradient>
<linearGradient id="paint8_linear_631_15261" x1="53.9237" y1="32.0022" x2="15.4732" y2="32.0022" gradientUnits="userSpaceOnUse">
<stop stop-color="#E0C500"/>
<stop offset="0.4087" stop-color="#E0A600"/>
<stop offset="0.7754" stop-color="#E09100"/>
<stop offset="1" stop-color="#E08900"/>
</linearGradient>
<linearGradient id="paint9_linear_631_15261" x1="53.9239" y1="32.0021" x2="15.4734" y2="32.0021" gradientUnits="userSpaceOnUse">
<stop stop-color="#FFE840"/>
<stop offset="0.4087" stop-color="#FFCE40"/>
<stop offset="0.7754" stop-color="#FFBC40"/>
<stop offset="1" stop-color="#FFB540"/>
</linearGradient>
<linearGradient id="paint10_linear_631_15261" x1="34.7999" y1="14.0253" x2="8.0815" y2="40.6937" gradientUnits="userSpaceOnUse">
<stop stop-color="#40B8FF"/>
<stop offset="0.00657445" stop-color="#40B9FF"/>
<stop offset="0.2601" stop-color="#40CEFF"/>
<stop offset="0.5122" stop-color="#40DDFF"/>
<stop offset="0.7604" stop-color="#40E7FF"/>
<stop offset="1" stop-color="#40EAFF"/>
</linearGradient>
<linearGradient id="paint11_linear_631_15261" x1="11.7544" y1="0.439599" x2="27.9335" y2="16.5884" gradientUnits="userSpaceOnUse">
<stop stop-color="#65B895"/>
<stop offset="0.0685" stop-color="#62BD95"/>
<stop offset="0.4762" stop-color="#50DB97"/>
<stop offset="0.8009" stop-color="#44ED98"/>
<stop offset="1" stop-color="#40F498"/>
</linearGradient>
</defs>
</svg>
