<svg width="114" height="114" viewBox="0 0 114 114" fill="none" xmlns="http://www.w3.org/2000/svg">
<circle cx="57" cy="57" r="57" fill="#E6F5F5"/>
<path d="M62.3644 18.0527C60.8782 18.0581 59.6822 19.2648 59.6876 20.751V52.9902C59.6795 53.9497 60.1875 54.8446 61.0152 55.3311L88.9518 71.4561C90.2391 72.1951 91.8812 71.749 92.6202 70.4644C98.8579 59.6579 98.8579 46.3387 92.6202 35.5323C86.3772 24.7231 74.8397 18.0527 62.3644 18.0527Z" fill="#039DA3"/>
<path d="M51.6302 26.0696C34.6909 26.0696 20.1542 38.2574 17.2114 54.9387C14.2686 71.62 23.7501 88.046 39.6655 93.8403C55.5808 99.6345 73.4151 93.155 81.8834 78.4866C82.6225 77.1993 82.1763 75.5545 80.8917 74.8181L54.3043 59.4591V28.7517C54.3043 27.2736 53.1056 26.075 51.6302 26.0696Z" fill="#F99110"/>
</svg>
