<svg width="124" height="124" viewBox="0 0 124 124" fill="none" xmlns="http://www.w3.org/2000/svg">
<g clip-path="url(#clip0_140_9449)">
<path d="M99.9442 37.707H24.0558C19.7049 37.707 16.1653 41.2466 16.1653 45.5975V94.4288V116.109C16.1653 120.46 19.7049 123.999 24.0558 123.999H45.7359H78.2636H99.9437C104.295 123.999 107.834 120.46 107.834 116.109V94.4288V45.5973C107.835 41.2466 104.295 37.707 99.9442 37.707Z" fill="#E57E25"/>
<path d="M62.0002 48.7292C58.9615 48.7292 56.4893 46.2572 56.4893 43.2183V16.3359H67.511V43.2183C67.511 46.2568 65.039 48.7292 62.0002 48.7292Z" fill="#C6C5CB"/>
<path d="M64.0162 43.2183V16.3359H67.511V43.2183C67.511 46.257 65.039 48.7292 62 48.7292C61.3887 48.7292 60.8024 48.6251 60.2526 48.4406C62.4367 47.7077 64.0162 45.6457 64.0162 43.2183Z" fill="#ACABB1"/>
<path d="M62.0003 0.0722656C69.486 0.0722656 75.5758 6.16231 75.5758 13.6478C75.5758 21.1334 69.4858 27.2234 62.0003 27.2234C54.5147 27.2234 48.4247 21.1334 48.4247 13.6478C48.4247 6.16231 54.5145 0.0722656 62.0003 0.0722656Z" fill="#F14747"/>
<path d="M64.7917 6.44352C70.4301 11.3672 71.0116 19.9603 66.0877 25.5986C65.6878 26.0564 65.2695 26.5369 64.8249 26.9277C67.6568 26.361 70.3225 24.836 72.3649 22.4974C77.2886 16.859 76.7073 8.26623 71.069 3.34231C65.8886 -1.18175 58.2156 -1.0546 53.1844 3.36871C57.1805 2.56901 61.4919 3.56198 64.7917 6.44352Z" fill="#E43535"/>
<path d="M16.1655 93.9707L46.1951 124H24.0558C19.7049 124 16.1653 120.46 16.1653 116.11V93.9707H16.1655Z" fill="#C7630D"/>
<path d="M35.1177 64.052H67.3765C68.4904 64.052 69.3927 63.1493 69.3927 62.0357C69.3927 60.9222 68.4904 60.0195 67.3765 60.0195H35.1177C34.0041 60.0195 33.1014 60.9222 33.1014 62.0357C33.1014 63.1491 34.0043 64.052 35.1177 64.052Z" fill="#C7630D"/>
<path d="M78.1297 64.052H88.8826C89.9964 64.052 90.8988 63.1493 90.8988 62.0357C90.8988 60.9222 89.9964 60.0195 88.8826 60.0195H78.1297C77.0159 60.0195 76.1135 60.9222 76.1135 62.0357C76.1135 63.1491 77.0159 64.052 78.1297 64.052Z" fill="#C7630D"/>
<path d="M35.1177 80.1818H51.2471C52.3607 80.1818 53.2633 79.2792 53.2633 78.1656C53.2633 77.052 52.3607 76.1494 51.2471 76.1494H35.1177C34.0041 76.1494 33.1014 77.052 33.1014 78.1656C33.1014 79.279 34.0043 80.1818 35.1177 80.1818Z" fill="#C7630D"/>
<path d="M59.984 78.1656C59.984 79.2792 60.8866 80.1818 62.0002 80.1818H88.8825C89.9964 80.1818 90.8988 79.2792 90.8988 78.1656C90.8988 77.052 89.9964 76.1494 88.8825 76.1494H62.0002C60.8866 76.1494 59.984 77.052 59.984 78.1656Z" fill="#C7630D"/>
<path d="M40.4942 92.2783H35.1177C34.0041 92.2783 33.1014 93.1809 33.1014 94.2945C33.1014 95.4081 34.0041 96.3107 35.1177 96.3107H40.4942C41.6078 96.3107 42.5104 95.4081 42.5104 94.2945C42.5104 93.1809 41.6075 92.2783 40.4942 92.2783Z" fill="#C7630D"/>
<path d="M67.3766 92.2783H51.2471C50.1335 92.2783 49.2309 93.1809 49.2309 94.2945C49.2309 95.4081 50.1335 96.3107 51.2471 96.3107H67.3766C68.4904 96.3107 69.3928 95.4081 69.3928 94.2945C69.3928 93.1809 68.4901 92.2783 67.3766 92.2783Z" fill="#C7630D"/>
<path d="M38.9018 93.9707C42.9231 93.9707 46.1951 97.2427 46.1951 101.264V124L16.1655 93.9707H38.9018Z" fill="#F28C33"/>
</g>
<defs>
<clipPath id="clip0_140_9449">
<rect width="124" height="124" fill="white"/>
</clipPath>
</defs>
</svg>
