<svg width="124" height="124" viewBox="0 0 124 124" fill="none" xmlns="http://www.w3.org/2000/svg">
<g clip-path="url(#clip0_140_9434)">
<path d="M80.2706 75.9229L86.5663 82.2185C85.6267 82.6254 84.7458 83.2107 83.9789 83.9776C83.2121 84.7444 82.6238 85.6254 82.2199 86.5649L75.9242 80.2722C76.691 79.6019 77.4403 78.8995 78.1691 78.1707C78.9008 77.439 79.6003 76.6897 80.2706 75.9229Z" fill="#E6E6E6"/>
<path d="M121.557 121.559C118.299 124.814 113.019 124.814 109.762 121.559L83.9789 95.7763C81.4882 93.2855 80.9028 89.6123 82.2199 86.5654C82.6238 85.6259 83.2121 84.7449 83.9789 83.9781C84.7458 83.2113 85.6268 82.6259 86.5663 82.2191C87.6199 81.7625 88.7468 81.5342 89.8766 81.5342C92.0102 81.5342 94.1439 82.3508 95.7742 83.9781L121.557 109.761C124.815 113.018 124.815 118.301 121.557 121.559Z" fill="#009398"/>
<path d="M78.1692 13.3939C63.3651 -1.41016 40.8605 -3.9419 23.4251 5.80162C19.828 7.81238 16.4475 10.3412 13.3948 13.3939C-4.46493 31.2536 -4.46493 60.3115 13.3948 78.1712C30.5228 95.2992 57.9533 95.9987 75.9243 80.2727C76.6911 79.6024 77.4404 78.9 78.1692 78.1712C78.9009 77.4395 79.6004 76.6902 80.2706 75.9234C81.9419 74.0121 83.4287 71.9955 84.7282 69.897C95.6659 52.2392 93.4766 28.7014 78.1692 13.3939ZM80.5838 63.5632C79.3253 66.0218 77.815 68.3282 76.0823 70.4501C68.9203 79.2424 58.006 84.8532 45.7834 84.8532C40.0702 84.8532 34.6438 83.6269 29.753 81.423C22.9803 78.3761 17.2348 73.4531 13.1753 67.3155C9.08937 61.1427 6.70983 53.7407 6.70983 45.7826C6.70983 32.9336 12.9118 21.5335 22.4856 14.4154C28.992 9.57435 37.0526 6.71188 45.7834 6.71188C67.3603 6.71188 84.8541 24.2028 84.8541 45.7826C84.8541 52.1865 83.3146 58.2305 80.5838 63.5632Z" fill="#009398"/>
<path opacity="0.23" d="M76.5198 70.4498C69.3578 79.2421 58.4435 84.8529 46.2209 84.8529C40.5077 84.8529 35.0813 83.6265 30.1905 81.4226C23.4178 78.3758 17.6723 73.4528 13.6128 67.3151C9.52688 61.1424 7.14734 53.7404 7.14734 45.7822C7.14734 32.9333 13.3494 21.5332 22.9231 14.415C22.9056 14.9565 22.8968 15.498 22.8968 16.0424C22.8968 45.829 46.8297 70.0254 76.5198 70.4498Z" fill="#F2F2F2"/>
<g clip-path="url(#clip1_140_9434)">
<path d="M63.1699 55.3741L63.0145 55.3286C60.7448 54.7204 59.9758 54.1335 58.9656 53.7504C55.383 52.3838 54.4505 51.4004 54.2119 50.9355C54.2026 50.9181 54.1958 50.9007 54.1878 50.8833L54.1583 46.7205L45.6587 46.624L37.1583 46.7205L37.1288 50.8833C37.1215 50.9007 37.1148 50.9181 37.106 50.9355C36.8676 51.4004 35.9351 52.3839 32.3511 53.7504C31.3409 54.1336 30.5725 54.7204 28.3029 55.3286L28.1476 55.3741C26.0815 56.0575 24.6915 57.9733 24.6915 60.1359V66.1475H45.6587H66.6265V60.1359C66.6265 57.9734 65.2359 56.0575 63.1699 55.3741Z" fill="#DBAFA5"/>
<path d="M57.4544 38.6634C57.4544 46.327 50.1471 53.3797 45.6587 53.3797C41.1697 53.3797 33.8638 46.327 33.8638 38.6634C33.8638 30.9997 39.1446 25.9434 45.6587 25.9434C52.1728 25.9434 57.4544 30.9997 57.4544 38.6634Z" fill="#EAC6BB"/>
<path d="M51.7467 26.6069C51.7467 26.6069 51.5175 24.5677 53.96 23.1006C54.9943 22.4789 38.4606 19.5314 34.3112 29.9792C33.6835 31.5587 33.4952 33.4399 33.4946 35.1226C33.4933 37.6187 37.498 33.2376 37.498 33.2376C37.498 33.2376 41.4142 34.1527 45.6587 34.1527C49.9032 34.1527 53.9614 33.2376 53.9614 33.2376C53.9614 33.2376 57.8723 37.052 57.9795 35.0101C58.0653 33.3944 57.9554 31.5213 57.2921 29.9912C55.7889 26.5266 51.7467 26.6069 51.7467 26.6069Z" fill="black"/>
<path d="M56.4654 31.895C56.0099 31.7423 55.4686 31.6592 54.9394 31.6592C54.5334 31.6592 53.9519 31.7087 53.4802 31.9446C53.3918 31.9888 53.2123 32.0356 52.9766 32.0356C52.7381 32.0356 52.5585 31.9887 52.4701 31.9446C52.103 31.7597 51.6314 31.6592 51.1464 31.6592C50.6614 31.6592 50.1898 31.7597 49.8226 31.9446C49.7342 31.9888 49.5547 32.0356 49.3162 32.0356C49.0804 32.0356 48.9008 31.9887 48.8124 31.9446C48.4439 31.7597 47.9737 31.6592 47.4886 31.6592C47.0022 31.6592 46.532 31.7597 46.1642 31.9446C46.0751 31.9888 45.8956 32.0356 45.6586 32.0356C45.4214 32.0356 45.2419 31.9887 45.1528 31.9446C44.785 31.7597 44.3154 31.6592 43.8291 31.6592C43.3434 31.6592 42.8738 31.7597 42.506 31.9446C42.4169 31.9888 42.2373 32.0356 42.0002 32.0356C41.7632 32.0356 41.5836 31.9887 41.4945 31.9446C41.1267 31.7597 40.6565 31.6592 40.1708 31.6592C39.6851 31.6592 39.2149 31.7597 38.847 31.9446C38.7579 31.9888 38.5783 32.0356 38.3412 32.0356C38.1048 32.0356 37.9252 31.9887 37.8361 31.9446C37.3645 31.7087 36.783 31.6592 36.3778 31.6592C35.8492 31.6592 35.3066 31.7423 34.851 31.895C33.7122 32.2742 32.8534 33.63 32.8534 35.0488C32.8534 36.4061 33.676 37.3922 34.8095 37.3922C35.0158 37.3922 35.2242 37.3574 35.4292 37.289C35.6998 37.198 36.0456 37.147 36.3778 37.147C36.7381 37.147 36.9538 37.2073 37.0175 37.2395C37.3859 37.423 37.8555 37.5235 38.3412 37.5235C38.827 37.5235 39.2972 37.423 39.665 37.2395C39.7541 37.1939 39.9337 37.147 40.1708 37.147C40.4079 37.147 40.5874 37.1939 40.6765 37.2395C41.0442 37.423 41.5145 37.5235 42.0002 37.5235C42.486 37.5235 42.9562 37.423 43.324 37.2395C43.4131 37.1939 43.5927 37.147 43.8292 37.147C44.0663 37.147 44.2458 37.1939 44.3349 37.2395C44.7026 37.423 45.1729 37.5235 45.6586 37.5235C46.1442 37.5235 46.6145 37.423 46.9824 37.2395C47.0708 37.1939 47.2503 37.147 47.4888 37.147C47.7246 37.147 47.9042 37.1939 47.9926 37.2395C48.3623 37.423 48.8313 37.5235 49.3164 37.5235C49.8027 37.5235 50.273 37.423 50.6402 37.2395C50.7299 37.1939 50.9095 37.147 51.1466 37.147C51.3837 37.147 51.5632 37.1939 51.6529 37.2395C52.02 37.423 52.4904 37.5235 52.9767 37.5235C53.4616 37.5235 53.932 37.423 54.3004 37.2395C54.3634 37.2073 54.5791 37.147 54.9395 37.147C55.2718 37.147 55.6175 37.198 55.8881 37.289C56.0931 37.3574 56.3021 37.3922 56.5084 37.3922C57.6419 37.3908 58.4645 36.4061 58.4645 35.0488C58.4645 33.63 57.6043 32.2742 56.4654 31.895Z" fill="#F14747"/>
<path d="M60.241 54.3275L54.8309 51.6318C54.1368 53.7902 51.886 59.7443 45.6526 59.7443C39.5265 59.7443 37.248 53.8424 36.5126 51.6104L31.079 54.3262C31.079 54.3262 33.4417 58.3724 32.8536 66.1472H58.4671C57.879 58.3724 60.241 54.3275 60.241 54.3275Z" fill="#40BDC1"/>
</g>
</g>
<defs>
<clipPath id="clip0_140_9434">
<rect width="124" height="124" fill="white"/>
</clipPath>
<clipPath id="clip1_140_9434">
<rect width="43.9029" height="43.9029" fill="white" transform="translate(23.7075 22.2441)"/>
</clipPath>
</defs>
</svg>
