<svg width="64" height="64" viewBox="0 0 64 64" fill="none" xmlns="http://www.w3.org/2000/svg">
<path d="M50.6667 8.00033H39.52C38.4 4.90699 35.4667 2.66699 32 2.66699C28.5333 2.66699 25.6 4.90699 24.48 8.00033H13.3333C10.4 8.00033 8 10.4003 8 13.3337V50.667C8 53.6003 10.4 56.0003 13.3333 56.0003H50.6667C53.6 56.0003 56 53.6003 56 50.667V13.3337C56 10.4003 53.6 8.00033 50.6667 8.00033ZM32 8.00033C33.4667 8.00033 34.6667 9.20033 34.6667 10.667C34.6667 12.1337 33.4667 13.3337 32 13.3337C30.5333 13.3337 29.3333 12.1337 29.3333 10.667C29.3333 9.20033 30.5333 8.00033 32 8.00033ZM37.3333 45.3337H18.6667V40.0003H37.3333V45.3337ZM45.3333 34.667H18.6667V29.3337H45.3333V34.667ZM45.3333 24.0003H18.6667V18.667H45.3333V24.0003Z" fill="white"/>
</svg>
