<svg width="17" height="13" viewBox="0 0 17 13" fill="none" xmlns="http://www.w3.org/2000/svg">
<path d="M13.94 5.76539C14.0425 5.49789 14.1 5.20539 14.1 4.90039C14.1 3.57539 13.025 2.50039 11.7 2.50039C11.2075 2.50039 10.7475 2.65039 10.3675 2.90539C9.675 1.70539 8.3825 0.900391 6.9 0.900391C4.69 0.900391 2.9 2.69039 2.9 4.90039C2.9 4.96789 2.9025 5.03539 2.905 5.10289C1.505 5.59539 0.5 6.93039 0.5 8.50039C0.5 10.4879 2.1125 12.1004 4.1 12.1004H13.3C15.0675 12.1004 16.5 10.6679 16.5 8.90039C16.5 7.35289 15.4 6.06039 13.94 5.76539ZM10.6175 7.98289L7.9825 10.6179C7.8275 10.7729 7.5725 10.7729 7.4175 10.6179L4.7825 7.98289C4.53 7.73039 4.71 7.30039 5.065 7.30039H6.7V4.50039C6.7 4.28039 6.88 4.10039 7.1 4.10039H8.3C8.52 4.10039 8.7 4.28039 8.7 4.50039V7.30039H10.335C10.69 7.30039 10.87 7.73039 10.6175 7.98289Z" fill="#009398"/>
</svg>
