<svg width="17" height="13" viewBox="0 0 17 13" fill="none" xmlns="http://www.w3.org/2000/svg">
<path d="M15 12.5H2C1.17156 12.5 0.5 11.8284 0.5 11V2C0.5 1.17156 1.17156 0.5 2 0.5H15C15.8284 0.5 16.5 1.17156 16.5 2V11C16.5 11.8284 15.8284 12.5 15 12.5ZM4 2.25C3.0335 2.25 2.25 3.0335 2.25 4C2.25 4.9665 3.0335 5.75 4 5.75C4.9665 5.75 5.75 4.9665 5.75 4C5.75 3.0335 4.9665 2.25 4 2.25ZM2.5 10.5H14.5V7L11.7652 4.26516C11.6187 4.11872 11.3813 4.11872 11.2348 4.26516L7 8.5L5.26516 6.76516C5.11872 6.61872 4.88128 6.61872 4.73481 6.76516L2.5 9V10.5Z" fill="#D8D8D8"/>
</svg>
