<svg width="64" height="64" viewBox="0 0 64 64" fill="none" xmlns="http://www.w3.org/2000/svg">
<path d="M51.04 34.5071C51.1466 33.7071 51.2 32.8804 51.2 32.0004C51.2 31.1471 51.1466 30.2937 51.0133 29.4937L56.4266 25.2804C56.9066 24.9071 57.04 24.1871 56.7466 23.6537L51.6266 14.8004C51.3066 14.2137 50.64 14.0271 50.0533 14.2137L43.68 16.7737C42.3466 15.7604 40.9333 14.9071 39.36 14.2671L38.4 7.49372C38.2933 6.85372 37.76 6.40039 37.12 6.40039H26.88C26.24 6.40039 25.7333 6.85372 25.6266 7.49372L24.6666 14.2671C23.0933 14.9071 21.6533 15.7871 20.3466 16.7737L13.9733 14.2137C13.3866 14.0004 12.72 14.2137 12.4 14.8004L7.30663 23.6537C6.98663 24.2137 7.0933 24.9071 7.62663 25.2804L13.04 29.4937C12.9066 30.2937 12.8 31.1737 12.8 32.0004C12.8 32.8271 12.8533 33.7071 12.9866 34.5071L7.5733 38.7204C7.0933 39.0937 6.95997 39.8137 7.2533 40.3471L12.3733 49.2004C12.6933 49.7871 13.36 49.9737 13.9466 49.7871L20.32 47.2271C21.6533 48.2404 23.0666 49.0937 24.64 49.7337L25.6 56.5071C25.7333 57.1471 26.24 57.6004 26.88 57.6004H37.12C37.76 57.6004 38.2933 57.1471 38.3733 56.5071L39.3333 49.7337C40.9066 49.0937 42.3466 48.2404 43.6533 47.2271L50.0266 49.7871C50.6133 50.0004 51.28 49.7871 51.6 49.2004L56.72 40.3471C57.04 39.7604 56.9066 39.0937 56.4 38.7204L51.04 34.5071ZM32 41.6004C26.72 41.6004 22.4 37.2804 22.4 32.0004C22.4 26.7204 26.72 22.4004 32 22.4004C37.28 22.4004 41.6 26.7204 41.6 32.0004C41.6 37.2804 37.28 41.6004 32 41.6004Z" fill="white"/>
</svg>
