<svg width="64" height="64" viewBox="0 0 64 64" fill="none" xmlns="http://www.w3.org/2000/svg">
<path d="M29.3333 45.3333C29.3333 46.8 30.5333 48 32 48C33.4667 48 34.6667 46.8 34.6667 45.3333C34.6667 43.8667 33.4667 42.6667 32 42.6667C30.5333 42.6667 29.3333 43.8667 29.3333 45.3333ZM29.3333 8V18.6667H34.6667V13.5467C43.7067 14.8533 50.6667 22.5867 50.6667 32C50.6667 42.32 42.32 50.6667 32 50.6667C21.68 50.6667 13.3333 42.32 13.3333 32C13.3333 27.52 14.9067 23.4133 17.5467 20.2133L32 34.6667L35.76 30.9067L17.6267 12.7733V12.8267C11.7867 17.2 8 24.1333 8 32C8 45.2533 18.72 56 32 56C45.2533 56 56 45.2533 56 32C56 18.7467 45.2533 8 32 8H29.3333ZM48 32C48 30.5333 46.8 29.3333 45.3333 29.3333C43.8667 29.3333 42.6667 30.5333 42.6667 32C42.6667 33.4667 43.8667 34.6667 45.3333 34.6667C46.8 34.6667 48 33.4667 48 32ZM16 32C16 33.4667 17.2 34.6667 18.6667 34.6667C20.1333 34.6667 21.3333 33.4667 21.3333 32C21.3333 30.5333 20.1333 29.3333 18.6667 29.3333C17.2 29.3333 16 30.5333 16 32Z" fill="white"/>
</svg>
