<svg width="16" height="13" viewBox="0 0 16 13" fill="none" xmlns="http://www.w3.org/2000/svg">
<path d="M13.44 5.76539C13.5425 5.49789 13.6 5.20539 13.6 4.90039C13.6 3.57539 12.525 2.50039 11.2 2.50039C10.7075 2.50039 10.2475 2.65039 9.8675 2.90539C9.175 1.70539 7.8825 0.900391 6.4 0.900391C4.19 0.900391 2.4 2.69039 2.4 4.90039C2.4 4.96789 2.4025 5.03539 2.405 5.10289C1.005 5.59539 0 6.93039 0 8.50039C0 10.4879 1.6125 12.1004 3.6 12.1004H12.8C14.5675 12.1004 16 10.6679 16 8.90039C16 7.35289 14.9 6.06039 13.44 5.76539ZM9.835 7.30039H8.2V10.1004C8.2 10.3204 8.02 10.5004 7.8 10.5004H6.6C6.38 10.5004 6.2 10.3204 6.2 10.1004V7.30039H4.565C4.2075 7.30039 4.03 6.87039 4.2825 6.61789L6.9175 3.98289C7.0725 3.82789 7.3275 3.82789 7.4825 3.98289L10.1175 6.61789C10.37 6.87039 10.19 7.30039 9.835 7.30039Z" fill="#D8D8D8"/>
</svg>
