<svg width="24" height="24" viewBox="0 0 24 24" fill="none" xmlns="http://www.w3.org/2000/svg">
<path d="M20.659 9.62292C20.7961 9.5099 21 9.61563 21 9.79427V17.25C21 18.2161 20.2441 19 19.3125 19H4.6875C3.75586 19 3 18.2161 3 17.25V9.79792C3 9.61563 3.20039 9.51354 3.34102 9.62656C4.12852 10.2609 5.17266 11.0667 8.75859 13.7682C9.50039 14.3297 10.752 15.5109 12 15.5036C13.2551 15.5146 14.5312 14.3078 15.2449 13.7682C18.8309 11.0667 19.8715 10.2573 20.659 9.62292ZM12 14.3333C12.8156 14.3479 13.9898 13.2688 14.5805 12.824C19.2457 9.31302 19.6008 9.00677 20.6766 8.13177C20.8805 7.96771 21 7.7125 21 7.44271V6.75C21 5.78385 20.2441 5 19.3125 5H4.6875C3.75586 5 3 5.78385 3 6.75V7.44271C3 7.7125 3.11953 7.96406 3.32344 8.13177C4.39922 9.00313 4.7543 9.31302 9.41953 12.824C10.0102 13.2688 11.1844 14.3479 12 14.3333Z" fill="#009398"/>
</svg>
