<svg width="24" height="24" viewBox="0 0 24 24" fill="none" xmlns="http://www.w3.org/2000/svg">
<path d="M6 8H5C4.72917 8 4.48958 8.10417 4.28125 8.3125C4.09375 8.5 4 8.72917 4 9V19C4 19.2708 4.09375 19.5 4.28125 19.6875C4.48958 19.8958 4.72917 20 5 20H6C6.27083 20 6.5 19.8958 6.6875 19.6875C6.89583 19.5 7 19.2708 7 19V9C7 8.72917 6.89583 8.5 6.6875 8.3125C6.5 8.10417 6.27083 8 6 8ZM19 9V6.40625C19 6.13542 18.9062 5.90625 18.7188 5.71875L17.2812 4.28125C17.0938 4.09375 16.8646 4 16.5938 4H9C8.72917 4 8.48958 4.10417 8.28125 4.3125C8.09375 4.5 8 4.72917 8 5V19C8 19.2708 8.09375 19.5 8.28125 19.6875C8.48958 19.8958 8.72917 20 9 20H19C19.2708 20 19.5 19.8958 19.6875 19.6875C19.8958 19.5 20 19.2708 20 19V10C20 9.72917 19.8958 9.5 19.6875 9.3125C19.5 9.10417 19.2708 9 19 9ZM13 17.5C13 17.6458 12.9479 17.7708 12.8438 17.875C12.7604 17.9583 12.6458 18 12.5 18H11.5C11.3542 18 11.2292 17.9583 11.125 17.875C11.0417 17.7708 11 17.6458 11 17.5V16.5C11 16.3542 11.0417 16.2396 11.125 16.1562C11.2292 16.0521 11.3542 16 11.5 16H12.5C12.6458 16 12.7604 16.0521 12.8438 16.1562C12.9479 16.2396 13 16.3542 13 16.5V17.5ZM13 13.5C13 13.6458 12.9479 13.7708 12.8438 13.875C12.7604 13.9583 12.6458 14 12.5 14H11.5C11.3542 14 11.2292 13.9583 11.125 13.875C11.0417 13.7708 11 13.6458 11 13.5V12.5C11 12.3542 11.0417 12.2396 11.125 12.1562C11.2292 12.0521 11.3542 12 11.5 12H12.5C12.6458 12 12.7604 12.0521 12.8438 12.1562C12.9479 12.2396 13 12.3542 13 12.5V13.5ZM17 17.5C17 17.6458 16.9479 17.7708 16.8438 17.875C16.7604 17.9583 16.6458 18 16.5 18H15.5C15.3542 18 15.2292 17.9583 15.125 17.875C15.0417 17.7708 15 17.6458 15 17.5V16.5C15 16.3542 15.0417 16.2396 15.125 16.1562C15.2292 16.0521 15.3542 16 15.5 16H16.5C16.6458 16 16.7604 16.0521 16.8438 16.1562C16.9479 16.2396 17 16.3542 17 16.5V17.5ZM17 13.5C17 13.6458 16.9479 13.7708 16.8438 13.875C16.7604 13.9583 16.6458 14 16.5 14H15.5C15.3542 14 15.2292 13.9583 15.125 13.875C15.0417 13.7708 15 13.6458 15 13.5V12.5C15 12.3542 15.0417 12.2396 15.125 12.1562C15.2292 12.0521 15.3542 12 15.5 12H16.5C16.6458 12 16.7604 12.0521 16.8438 12.1562C16.9479 12.2396 17 12.3542 17 12.5V13.5ZM17.5 10H9.5V5.5H16V6.5C16 6.64583 16.0417 6.77083 16.125 6.875C16.2292 6.95833 16.3542 7 16.5 7H17.5V10Z" fill="#009398"/>
</svg>
