<svg width="24" height="24" viewBox="0 0 24 24" fill="none" xmlns="http://www.w3.org/2000/svg">
<circle cx="12" cy="12" r="12" fill="#3F3F43"/>
<path d="M12.0024 9.30464C10.5118 9.30464 9.30942 10.507 9.30942 11.9976C9.30942 13.4882 10.5118 14.6906 12.0024 14.6906C13.493 14.6906 14.6954 13.4882 14.6954 11.9976C14.6954 10.507 13.493 9.30464 12.0024 9.30464ZM12.0024 13.7484C11.0391 13.7484 10.2516 12.9632 10.2516 11.9976C10.2516 11.032 11.0368 10.2468 12.0024 10.2468C12.968 10.2468 13.7532 11.032 13.7532 11.9976C13.7532 12.9632 12.9657 13.7484 12.0024 13.7484ZM15.4336 9.19448C15.4336 9.5437 15.1524 9.82261 14.8055 9.82261C14.4563 9.82261 14.1774 9.54136 14.1774 9.19448C14.1774 8.84761 14.4586 8.56636 14.8055 8.56636C15.1524 8.56636 15.4336 8.84761 15.4336 9.19448ZM17.2172 9.83198C17.1774 8.99058 16.9852 8.24526 16.3688 7.6312C15.7547 7.01714 15.0094 6.82495 14.168 6.78276C13.3008 6.73354 10.7016 6.73354 9.83442 6.78276C8.99536 6.82261 8.25005 7.01479 7.63364 7.62886C7.01724 8.24292 6.82739 8.98823 6.78521 9.82964C6.73599 10.6968 6.73599 13.296 6.78521 14.1632C6.82505 15.0046 7.01724 15.75 7.63364 16.364C8.25005 16.9781 8.99302 17.1703 9.83442 17.2125C10.7016 17.2617 13.3008 17.2617 14.168 17.2125C15.0094 17.1726 15.7547 16.9804 16.3688 16.364C16.9829 15.75 17.175 15.0046 17.2172 14.1632C17.2665 13.296 17.2665 10.6992 17.2172 9.83198ZM16.0969 15.0937C15.9141 15.5531 15.5602 15.907 15.0985 16.0921C14.4071 16.3664 12.7665 16.3031 12.0024 16.3031C11.2383 16.3031 9.59536 16.364 8.9063 16.0921C8.44692 15.9093 8.09302 15.5554 7.90786 15.0937C7.63364 14.4023 7.69692 12.7617 7.69692 11.9976C7.69692 11.2335 7.63599 9.59058 7.90786 8.90151C8.09067 8.44214 8.44458 8.08823 8.9063 7.90308C9.5977 7.62886 11.2383 7.69214 12.0024 7.69214C12.7665 7.69214 14.4094 7.6312 15.0985 7.90308C15.5579 8.08589 15.9118 8.43979 16.0969 8.90151C16.3711 9.59292 16.3079 11.2335 16.3079 11.9976C16.3079 12.7617 16.3711 14.4046 16.0969 15.0937Z" fill="white"/>
</svg>
