<svg width="24" height="24" viewBox="0 0 24 24" fill="none" xmlns="http://www.w3.org/2000/svg">
<path d="M19.3958 4.77083L16.1458 4.02083C15.9791 3.97917 15.8125 4 15.6458 4.08333C15.4791 4.16666 15.3646 4.28125 15.3021 4.42708L13.8021 7.92708C13.7396 8.09375 13.7291 8.26042 13.7708 8.42708C13.8125 8.57292 13.8958 8.69792 14.0208 8.80208L15.8958 10.3646C15.3333 11.5729 14.5729 12.6563 13.6146 13.6146C12.6771 14.5729 11.5938 15.3333 10.3646 15.8958L8.83333 14.0208C8.72916 13.875 8.59375 13.7917 8.42708 13.7708C8.26041 13.7292 8.10416 13.7396 7.95833 13.8021L4.45833 15.3021C4.29166 15.3646 4.16666 15.4792 4.08333 15.6458C4 15.8125 3.97917 15.9792 4.02083 16.1458L4.77083 19.3958C4.79166 19.5833 4.875 19.7292 5.02083 19.8333C5.16666 19.9375 5.32291 19.9896 5.48958 19.9896C8.11458 19.9896 10.5521 19.3333 12.8021 18.0208C14.9896 16.7292 16.7291 14.9896 18.0208 12.8021C19.3333 10.5521 19.9896 8.11458 19.9896 5.48958C19.9896 5.32291 19.9375 5.16666 19.8333 5.02083C19.7291 4.875 19.5833 4.79166 19.3958 4.77083Z" fill="#009398"/>
</svg>
