<svg width="24" height="24" viewBox="0 0 24 24" fill="none" xmlns="http://www.w3.org/2000/svg">
<circle cx="12" cy="12" r="12" fill="#3F3F43"/>
<path d="M16.7665 9.55588C16.7741 9.66247 16.7741 9.76909 16.7741 9.87568C16.7741 13.1269 14.2995 16.8731 9.77665 16.8731C8.38324 16.8731 7.08884 16.4696 6 15.7691C6.19798 15.7919 6.38831 15.7995 6.59391 15.7995C7.74363 15.7995 8.80202 15.4112 9.6472 14.7488C8.56598 14.7259 7.65989 14.0178 7.3477 13.0432C7.5 13.066 7.65227 13.0812 7.81219 13.0812C8.03299 13.0812 8.25382 13.0508 8.45939 12.9975C7.33249 12.7691 6.48729 11.7792 6.48729 10.5838V10.5534C6.81469 10.7361 7.19543 10.8503 7.59895 10.8655C6.93652 10.4239 6.50252 9.67009 6.50252 8.81729C6.50252 8.36045 6.62433 7.94166 6.83754 7.57618C8.0482 9.06856 9.86801 10.0432 11.9086 10.1498C11.8705 9.96704 11.8477 9.7767 11.8477 9.58634C11.8477 8.231 12.9441 7.12695 14.3071 7.12695C15.0152 7.12695 15.6548 7.42391 16.104 7.9036C16.6598 7.79701 17.1928 7.59141 17.6649 7.3097C17.4822 7.88077 17.0939 8.36047 16.5837 8.66502C17.0786 8.61174 17.5583 8.47466 18 8.28432C17.665 8.77161 17.2462 9.2056 16.7665 9.55588Z" fill="white"/>
</svg>
